<svg width="348" height="431" viewBox="0 0 348 431" fill="none" xmlns="http://www.w3.org/2000/svg">
<g clip-path="url(#clip0_15_9204)">
<rect x="0.666626" y="0.770752" width="346.667" height="429.412" rx="11.7647" fill="#EAF5FF"/>
<rect x="119.667" y="211.771" width="279" height="279" rx="139.5" fill="#D3E7FF"/>
<path d="M33.716 45.396C33.716 46.2173 33.518 46.9873 33.122 47.706C32.7407 48.4247 32.132 49.004 31.296 49.444C30.4747 49.884 29.4333 50.104 28.172 50.104H25.598V56H22.518V40.644H28.172C29.36 40.644 30.372 40.8493 31.208 41.26C32.044 41.6707 32.6673 42.2353 33.078 42.954C33.5033 43.6727 33.716 44.4867 33.716 45.396ZM28.04 47.618C28.8907 47.618 29.5213 47.4273 29.932 47.046C30.3427 46.65 30.548 46.1 30.548 45.396C30.548 43.9 29.712 43.152 28.04 43.152H25.598V47.618H28.04ZM38.5906 45.704C38.9866 45.0587 39.4999 44.5527 40.1306 44.186C40.7759 43.8193 41.5093 43.636 42.3306 43.636V46.87H41.5166C40.5486 46.87 39.8153 47.0973 39.3166 47.552C38.8326 48.0067 38.5906 48.7987 38.5906 49.928V56H35.5106V43.812H38.5906V45.704ZM49.425 56.198C48.2517 56.198 47.1957 55.9413 46.257 55.428C45.3183 54.9 44.5777 54.1593 44.035 53.206C43.507 52.2527 43.243 51.1527 43.243 49.906C43.243 48.6593 43.5143 47.5593 44.057 46.606C44.6143 45.6527 45.3697 44.9193 46.323 44.406C47.2763 43.878 48.3397 43.614 49.513 43.614C50.6863 43.614 51.7497 43.878 52.703 44.406C53.6563 44.9193 54.4043 45.6527 54.947 46.606C55.5043 47.5593 55.783 48.6593 55.783 49.906C55.783 51.1527 55.497 52.2527 54.925 53.206C54.3677 54.1593 53.605 54.9 52.637 55.428C51.6837 55.9413 50.613 56.198 49.425 56.198ZM49.425 53.514C49.9823 53.514 50.503 53.382 50.987 53.118C51.4857 52.8393 51.8817 52.4287 52.175 51.886C52.4683 51.3433 52.615 50.6833 52.615 49.906C52.615 48.7473 52.307 47.86 51.691 47.244C51.0897 46.6133 50.349 46.298 49.469 46.298C48.589 46.298 47.8483 46.6133 47.247 47.244C46.6603 47.86 46.367 48.7473 46.367 49.906C46.367 51.0647 46.653 51.9593 47.225 52.59C47.8117 53.206 48.545 53.514 49.425 53.514ZM62.4241 43.614C63.3335 43.614 64.1328 43.7973 64.8221 44.164C65.5115 44.516 66.0541 44.978 66.4501 45.55V43.812H69.5521V56.088C69.5521 57.2173 69.3248 58.222 68.8701 59.102C68.4155 59.9967 67.7335 60.7007 66.8241 61.214C65.9148 61.742 64.8148 62.006 63.5241 62.006C61.7935 62.006 60.3708 61.6027 59.2561 60.796C58.1561 59.9893 57.5328 58.8893 57.3861 57.496H60.4441C60.6055 58.0533 60.9501 58.4933 61.4781 58.816C62.0208 59.1533 62.6735 59.322 63.4361 59.322C64.3308 59.322 65.0568 59.0507 65.6141 58.508C66.1715 57.98 66.4501 57.1733 66.4501 56.088V54.196C66.0541 54.768 65.5041 55.2447 64.8001 55.626C64.1108 56.0073 63.3188 56.198 62.4241 56.198C61.3975 56.198 60.4588 55.934 59.6081 55.406C58.7575 54.878 58.0828 54.1373 57.5841 53.184C57.1001 52.216 56.8581 51.1087 56.8581 49.862C56.8581 48.63 57.1001 47.5373 57.5841 46.584C58.0828 45.6307 58.7501 44.8973 59.5861 44.384C60.4368 43.8707 61.3828 43.614 62.4241 43.614ZM66.4501 49.906C66.4501 49.158 66.3035 48.52 66.0101 47.992C65.7168 47.4493 65.3208 47.0387 64.8221 46.76C64.3235 46.4667 63.7881 46.32 63.2161 46.32C62.6441 46.32 62.1161 46.4593 61.6321 46.738C61.1481 47.0167 60.7521 47.4273 60.4441 47.97C60.1508 48.498 60.0041 49.1287 60.0041 49.862C60.0041 50.5953 60.1508 51.2407 60.4441 51.798C60.7521 52.3407 61.1481 52.7587 61.6321 53.052C62.1308 53.3453 62.6588 53.492 63.2161 53.492C63.7881 53.492 64.3235 53.3527 64.8221 53.074C65.3208 52.7807 65.7168 52.37 66.0101 51.842C66.3035 51.2993 66.4501 50.654 66.4501 49.906ZM75.2481 45.704C75.6441 45.0587 76.1575 44.5527 76.7881 44.186C77.4335 43.8193 78.1668 43.636 78.9881 43.636V46.87H78.1741C77.2061 46.87 76.4728 47.0973 75.9741 47.552C75.4901 48.0067 75.2481 48.7987 75.2481 49.928V56H72.1681V43.812H75.2481V45.704ZM79.8785 49.862C79.8785 48.63 80.1205 47.5373 80.6045 46.584C81.1032 45.6307 81.7705 44.8973 82.6065 44.384C83.4572 43.8707 84.4032 43.614 85.4445 43.614C86.3538 43.614 87.1458 43.7973 87.8205 44.164C88.5098 44.5307 89.0598 44.9927 89.4705 45.55V43.812H92.5725V56H89.4705V54.218C89.0745 54.79 88.5245 55.2667 87.8205 55.648C87.1312 56.0147 86.3318 56.198 85.4225 56.198C84.3958 56.198 83.4572 55.934 82.6065 55.406C81.7705 54.878 81.1032 54.1373 80.6045 53.184C80.1205 52.216 79.8785 51.1087 79.8785 49.862ZM89.4705 49.906C89.4705 49.158 89.3238 48.52 89.0305 47.992C88.7372 47.4493 88.3412 47.0387 87.8425 46.76C87.3438 46.4667 86.8085 46.32 86.2365 46.32C85.6645 46.32 85.1365 46.4593 84.6525 46.738C84.1685 47.0167 83.7725 47.4273 83.4645 47.97C83.1712 48.498 83.0245 49.1287 83.0245 49.862C83.0245 50.5953 83.1712 51.2407 83.4645 51.798C83.7725 52.3407 84.1685 52.7587 84.6525 53.052C85.1512 53.3453 85.6792 53.492 86.2365 53.492C86.8085 53.492 87.3438 53.3527 87.8425 53.074C88.3412 52.7807 88.7372 52.37 89.0305 51.842C89.3238 51.2993 89.4705 50.654 89.4705 49.906ZM110.324 43.636C111.82 43.636 113.023 44.098 113.932 45.022C114.856 45.9313 115.318 47.2073 115.318 48.85V56H112.238V49.268C112.238 48.3147 111.996 47.5887 111.512 47.09C111.028 46.5767 110.368 46.32 109.532 46.32C108.696 46.32 108.029 46.5767 107.53 47.09C107.046 47.5887 106.804 48.3147 106.804 49.268V56H103.724V49.268C103.724 48.3147 103.482 47.5887 102.998 47.09C102.514 46.5767 101.854 46.32 101.018 46.32C100.168 46.32 99.4932 46.5767 98.9945 47.09C98.5105 47.5887 98.2685 48.3147 98.2685 49.268V56H95.1885V43.812H98.2685V45.286C98.6645 44.7727 99.1705 44.3693 99.7865 44.076C100.417 43.7827 101.106 43.636 101.854 43.636C102.808 43.636 103.658 43.8413 104.406 44.252C105.154 44.648 105.734 45.22 106.144 45.968C106.54 45.264 107.112 44.6993 107.86 44.274C108.623 43.8487 109.444 43.636 110.324 43.636ZM132.985 43.636C134.481 43.636 135.684 44.098 136.593 45.022C137.517 45.9313 137.979 47.2073 137.979 48.85V56H134.899V49.268C134.899 48.3147 134.657 47.5887 134.173 47.09C133.689 46.5767 133.029 46.32 132.193 46.32C131.357 46.32 130.69 46.5767 130.191 47.09C129.707 47.5887 129.465 48.3147 129.465 49.268V56H126.385V49.268C126.385 48.3147 126.143 47.5887 125.659 47.09C125.175 46.5767 124.515 46.32 123.679 46.32C122.828 46.32 122.154 46.5767 121.655 47.09C121.171 47.5887 120.929 48.3147 120.929 49.268V56H117.849V43.812H120.929V45.286C121.325 44.7727 121.831 44.3693 122.447 44.076C123.078 43.7827 123.767 43.636 124.515 43.636C125.468 43.636 126.319 43.8413 127.067 44.252C127.815 44.648 128.394 45.22 128.805 45.968C129.201 45.264 129.773 44.6993 130.521 44.274C131.284 43.8487 132.105 43.636 132.985 43.636ZM139.718 49.862C139.718 48.63 139.96 47.5373 140.444 46.584C140.942 45.6307 141.61 44.8973 142.446 44.384C143.296 43.8707 144.242 43.614 145.284 43.614C146.193 43.614 146.985 43.7973 147.66 44.164C148.349 44.5307 148.899 44.9927 149.31 45.55V43.812H152.412V56H149.31V54.218C148.914 54.79 148.364 55.2667 147.66 55.648C146.97 56.0147 146.171 56.198 145.262 56.198C144.235 56.198 143.296 55.934 142.446 55.406C141.61 54.878 140.942 54.1373 140.444 53.184C139.96 52.216 139.718 51.1087 139.718 49.862ZM149.31 49.906C149.31 49.158 149.163 48.52 148.87 47.992C148.576 47.4493 148.18 47.0387 147.682 46.76C147.183 46.4667 146.648 46.32 146.076 46.32C145.504 46.32 144.976 46.4593 144.492 46.738C144.008 47.0167 143.612 47.4273 143.304 47.97C143.01 48.498 142.864 49.1287 142.864 49.862C142.864 50.5953 143.01 51.2407 143.304 51.798C143.612 52.3407 144.008 52.7587 144.492 53.052C144.99 53.3453 145.518 53.492 146.076 53.492C146.648 53.492 147.183 53.3527 147.682 53.074C148.18 52.7807 148.576 52.37 148.87 51.842C149.163 51.2993 149.31 50.654 149.31 49.906ZM158.614 46.342V52.238C158.614 52.6487 158.709 52.9493 158.9 53.14C159.105 53.316 159.442 53.404 159.912 53.404H161.342V56H159.406C156.81 56 155.512 54.7387 155.512 52.216V46.342H154.06V43.812H155.512V40.798H158.614V43.812H161.342V46.342H158.614ZM164.727 42.36C164.184 42.36 163.729 42.1913 163.363 41.854C163.011 41.502 162.835 41.0693 162.835 40.556C162.835 40.0427 163.011 39.6173 163.363 39.28C163.729 38.928 164.184 38.752 164.727 38.752C165.269 38.752 165.717 38.928 166.069 39.28C166.435 39.6173 166.619 40.0427 166.619 40.556C166.619 41.0693 166.435 41.502 166.069 41.854C165.717 42.1913 165.269 42.36 164.727 42.36ZM166.245 43.812V56H163.165V43.812H166.245ZM168.104 49.906C168.104 48.6447 168.36 47.5447 168.874 46.606C169.387 45.6527 170.098 44.9193 171.008 44.406C171.917 43.878 172.958 43.614 174.132 43.614C175.642 43.614 176.889 43.9953 177.872 44.758C178.869 45.506 179.536 46.562 179.874 47.926H176.552C176.376 47.398 176.075 46.9873 175.65 46.694C175.239 46.386 174.726 46.232 174.11 46.232C173.23 46.232 172.533 46.5547 172.02 47.2C171.506 47.8307 171.25 48.7327 171.25 49.906C171.25 51.0647 171.506 51.9667 172.02 52.612C172.533 53.2427 173.23 53.558 174.11 53.558C175.356 53.558 176.17 53.0007 176.552 51.886H179.874C179.536 53.206 178.869 54.2547 177.872 55.032C176.874 55.8093 175.628 56.198 174.132 56.198C172.958 56.198 171.917 55.9413 171.008 55.428C170.098 54.9 169.387 54.1667 168.874 53.228C168.36 52.2747 168.104 51.1673 168.104 49.906ZM197.038 40.644V43.13H192.946V56H189.866V43.13H185.774V40.644H197.038ZM198.101 49.862C198.101 48.63 198.343 47.5373 198.827 46.584C199.326 45.6307 199.993 44.8973 200.829 44.384C201.68 43.8707 202.626 43.614 203.667 43.614C204.576 43.614 205.368 43.7973 206.043 44.164C206.732 44.5307 207.282 44.9927 207.693 45.55V43.812H210.795V56H207.693V54.218C207.297 54.79 206.747 55.2667 206.043 55.648C205.354 56.0147 204.554 56.198 203.645 56.198C202.618 56.198 201.68 55.934 200.829 55.406C199.993 54.878 199.326 54.1373 198.827 53.184C198.343 52.216 198.101 51.1087 198.101 49.862ZM207.693 49.906C207.693 49.158 207.546 48.52 207.253 47.992C206.96 47.4493 206.564 47.0387 206.065 46.76C205.566 46.4667 205.031 46.32 204.459 46.32C203.887 46.32 203.359 46.4593 202.875 46.738C202.391 47.0167 201.995 47.4273 201.687 47.97C201.394 48.498 201.247 49.1287 201.247 49.862C201.247 50.5953 201.394 51.2407 201.687 51.798C201.995 52.3407 202.391 52.7587 202.875 53.052C203.374 53.3453 203.902 53.492 204.459 53.492C205.031 53.492 205.566 53.3527 206.065 53.074C206.564 52.7807 206.96 52.37 207.253 51.842C207.546 51.2993 207.693 50.654 207.693 49.906ZM216.491 45.704C216.887 45.0587 217.4 44.5527 218.031 44.186C218.676 43.8193 219.41 43.636 220.231 43.636V46.87H219.417C218.449 46.87 217.716 47.0973 217.217 47.552C216.733 48.0067 216.491 48.7987 216.491 49.928V56H213.411V43.812H216.491V45.704ZM226.687 43.614C227.597 43.614 228.396 43.7973 229.085 44.164C229.775 44.516 230.317 44.978 230.713 45.55V43.812H233.815V56.088C233.815 57.2173 233.588 58.222 233.133 59.102C232.679 59.9967 231.997 60.7007 231.087 61.214C230.178 61.742 229.078 62.006 227.787 62.006C226.057 62.006 224.634 61.6027 223.519 60.796C222.419 59.9893 221.796 58.8893 221.649 57.496H224.707C224.869 58.0533 225.213 58.4933 225.741 58.816C226.284 59.1533 226.937 59.322 227.699 59.322C228.594 59.322 229.32 59.0507 229.877 58.508C230.435 57.98 230.713 57.1733 230.713 56.088V54.196C230.317 54.768 229.767 55.2447 229.063 55.626C228.374 56.0073 227.582 56.198 226.687 56.198C225.661 56.198 224.722 55.934 223.871 55.406C223.021 54.878 222.346 54.1373 221.847 53.184C221.363 52.216 221.121 51.1087 221.121 49.862C221.121 48.63 221.363 47.5373 221.847 46.584C222.346 45.6307 223.013 44.8973 223.849 44.384C224.7 43.8707 225.646 43.614 226.687 43.614ZM230.713 49.906C230.713 49.158 230.567 48.52 230.273 47.992C229.98 47.4493 229.584 47.0387 229.085 46.76C228.587 46.4667 228.051 46.32 227.479 46.32C226.907 46.32 226.379 46.4593 225.895 46.738C225.411 47.0167 225.015 47.4273 224.707 47.97C224.414 48.498 224.267 49.1287 224.267 49.862C224.267 50.5953 224.414 51.2407 224.707 51.798C225.015 52.3407 225.411 52.7587 225.895 53.052C226.394 53.3453 226.922 53.492 227.479 53.492C228.051 53.492 228.587 53.3527 229.085 53.074C229.584 52.7807 229.98 52.37 230.273 51.842C230.567 51.2993 230.713 50.654 230.713 49.906ZM247.761 49.642C247.761 50.082 247.732 50.478 247.673 50.83H238.763C238.837 51.71 239.145 52.3993 239.687 52.898C240.23 53.3967 240.897 53.646 241.689 53.646C242.833 53.646 243.647 53.1547 244.131 52.172H247.453C247.101 53.3453 246.427 54.3133 245.429 55.076C244.432 55.824 243.207 56.198 241.755 56.198C240.582 56.198 239.526 55.9413 238.587 55.428C237.663 54.9 236.937 54.1593 236.409 53.206C235.896 52.2527 235.639 51.1527 235.639 49.906C235.639 48.6447 235.896 47.5373 236.409 46.584C236.923 45.6307 237.641 44.8973 238.565 44.384C239.489 43.8707 240.553 43.614 241.755 43.614C242.914 43.614 243.948 43.8633 244.857 44.362C245.781 44.8607 246.493 45.572 246.991 46.496C247.505 47.4053 247.761 48.454 247.761 49.642ZM244.571 48.762C244.557 47.97 244.271 47.3393 243.713 46.87C243.156 46.386 242.474 46.144 241.667 46.144C240.905 46.144 240.259 46.3787 239.731 46.848C239.218 47.3027 238.903 47.9407 238.785 48.762H244.571ZM253.203 46.342V52.238C253.203 52.6487 253.299 52.9493 253.489 53.14C253.695 53.316 254.032 53.404 254.501 53.404H255.931V56H253.995C251.399 56 250.101 54.7387 250.101 52.216V46.342H248.649V43.812H250.101V40.798H253.203V43.812H255.931V46.342H253.203ZM259.317 42.36C258.774 42.36 258.319 42.1913 257.953 41.854C257.601 41.502 257.425 41.0693 257.425 40.556C257.425 40.0427 257.601 39.6173 257.953 39.28C258.319 38.928 258.774 38.752 259.317 38.752C259.859 38.752 260.307 38.928 260.659 39.28C261.025 39.6173 261.209 40.0427 261.209 40.556C261.209 41.0693 261.025 41.502 260.659 41.854C260.307 42.1913 259.859 42.36 259.317 42.36ZM260.835 43.812V56H257.755V43.812H260.835ZM270.239 43.636C271.691 43.636 272.865 44.098 273.759 45.022C274.654 45.9313 275.101 47.2073 275.101 48.85V56H272.021V49.268C272.021 48.3 271.779 47.5593 271.295 47.046C270.811 46.518 270.151 46.254 269.315 46.254C268.465 46.254 267.79 46.518 267.291 47.046C266.807 47.5593 266.565 48.3 266.565 49.268V56H263.485V43.812H266.565V45.33C266.976 44.802 267.497 44.3913 268.127 44.098C268.773 43.79 269.477 43.636 270.239 43.636ZM282.412 43.614C283.322 43.614 284.121 43.7973 284.81 44.164C285.5 44.516 286.042 44.978 286.438 45.55V43.812H289.54V56.088C289.54 57.2173 289.313 58.222 288.858 59.102C288.404 59.9967 287.722 60.7007 286.812 61.214C285.903 61.742 284.803 62.006 283.512 62.006C281.782 62.006 280.359 61.6027 279.244 60.796C278.144 59.9893 277.521 58.8893 277.374 57.496H280.432C280.594 58.0533 280.938 58.4933 281.466 58.816C282.009 59.1533 282.662 59.322 283.424 59.322C284.319 59.322 285.045 59.0507 285.602 58.508C286.16 57.98 286.438 57.1733 286.438 56.088V54.196C286.042 54.768 285.492 55.2447 284.788 55.626C284.099 56.0073 283.307 56.198 282.412 56.198C281.386 56.198 280.447 55.934 279.596 55.406C278.746 54.878 278.071 54.1373 277.572 53.184C277.088 52.216 276.846 51.1087 276.846 49.862C276.846 48.63 277.088 47.5373 277.572 46.584C278.071 45.6307 278.738 44.8973 279.574 44.384C280.425 43.8707 281.371 43.614 282.412 43.614ZM286.438 49.906C286.438 49.158 286.292 48.52 285.998 47.992C285.705 47.4493 285.309 47.0387 284.81 46.76C284.312 46.4667 283.776 46.32 283.204 46.32C282.632 46.32 282.104 46.4593 281.62 46.738C281.136 47.0167 280.74 47.4273 280.432 47.97C280.139 48.498 279.992 49.1287 279.992 49.862C279.992 50.5953 280.139 51.2407 280.432 51.798C280.74 52.3407 281.136 52.7587 281.62 53.052C282.119 53.3453 282.647 53.492 283.204 53.492C283.776 53.492 284.312 53.3527 284.81 53.074C285.309 52.7807 285.705 52.37 285.998 51.842C286.292 51.2993 286.438 50.654 286.438 49.906Z" fill="#1A202A"/>
<path d="M23.988 74.454V82.392C23.988 83.508 24.258 84.336 24.798 84.876C25.35 85.416 26.112 85.686 27.084 85.686C28.044 85.686 28.794 85.416 29.334 84.876C29.886 84.336 30.162 83.508 30.162 82.392V74.454H31.8V82.374C31.8 83.418 31.59 84.3 31.17 85.02C30.75 85.728 30.18 86.256 29.46 86.604C28.752 86.952 27.954 87.126 27.066 87.126C26.178 87.126 25.374 86.952 24.654 86.604C23.946 86.256 23.382 85.728 22.962 85.02C22.554 84.3 22.35 83.418 22.35 82.374V74.454H23.988ZM37.6323 87.162C36.8763 87.162 36.1983 87.036 35.5983 86.784C34.9983 86.52 34.5243 86.16 34.1763 85.704C33.8283 85.236 33.6363 84.702 33.6003 84.102H35.2923C35.3403 84.594 35.5683 84.996 35.9763 85.308C36.3963 85.62 36.9423 85.776 37.6143 85.776C38.2383 85.776 38.7303 85.638 39.0903 85.362C39.4503 85.086 39.6303 84.738 39.6303 84.318C39.6303 83.886 39.4383 83.568 39.0543 83.364C38.6703 83.148 38.0763 82.938 37.2723 82.734C36.5403 82.542 35.9403 82.35 35.4723 82.158C35.0163 81.954 34.6203 81.66 34.2843 81.276C33.9603 80.88 33.7983 80.364 33.7983 79.728C33.7983 79.224 33.9483 78.762 34.2483 78.342C34.5483 77.922 34.9743 77.592 35.5263 77.352C36.0783 77.1 36.7083 76.974 37.4163 76.974C38.5083 76.974 39.3903 77.25 40.0623 77.802C40.7343 78.354 41.0943 79.11 41.1423 80.07H39.5043C39.4683 79.554 39.2583 79.14 38.8743 78.828C38.5023 78.516 37.9983 78.36 37.3623 78.36C36.7743 78.36 36.3063 78.486 35.9583 78.738C35.6103 78.99 35.4363 79.32 35.4363 79.728C35.4363 80.052 35.5383 80.322 35.7423 80.538C35.9583 80.742 36.2223 80.91 36.5343 81.042C36.8583 81.162 37.3023 81.3 37.8663 81.456C38.5743 81.648 39.1503 81.84 39.5943 82.032C40.0383 82.212 40.4163 82.488 40.7283 82.86C41.0523 83.232 41.2203 83.718 41.2323 84.318C41.2323 84.858 41.0823 85.344 40.7823 85.776C40.4823 86.208 40.0563 86.55 39.5043 86.802C38.9643 87.042 38.3403 87.162 37.6323 87.162ZM52.1525 81.69C52.1525 82.002 52.1345 82.332 52.0985 82.68H44.2145C44.2745 83.652 44.6045 84.414 45.2045 84.966C45.8165 85.506 46.5545 85.776 47.4185 85.776C48.1265 85.776 48.7145 85.614 49.1825 85.29C49.6625 84.954 49.9985 84.51 50.1905 83.958H51.9545C51.6905 84.906 51.1625 85.68 50.3705 86.28C49.5785 86.868 48.5945 87.162 47.4185 87.162C46.4825 87.162 45.6425 86.952 44.8985 86.532C44.1665 86.112 43.5905 85.518 43.1705 84.75C42.7505 83.97 42.5405 83.07 42.5405 82.05C42.5405 81.03 42.7445 80.136 43.1525 79.368C43.5605 78.6 44.1305 78.012 44.8625 77.604C45.6065 77.184 46.4585 76.974 47.4185 76.974C48.3545 76.974 49.1825 77.178 49.9025 77.586C50.6225 77.994 51.1745 78.558 51.5585 79.278C51.9545 79.986 52.1525 80.79 52.1525 81.69ZM50.4605 81.348C50.4605 80.724 50.3225 80.19 50.0465 79.746C49.7705 79.29 49.3925 78.948 48.9125 78.72C48.4445 78.48 47.9225 78.36 47.3465 78.36C46.5185 78.36 45.8105 78.624 45.2225 79.152C44.6465 79.68 44.3165 80.412 44.2325 81.348H50.4605ZM59.9671 78.738C60.2551 78.174 60.6631 77.736 61.1911 77.424C61.7311 77.112 62.3851 76.956 63.1531 76.956V78.648H62.7211C60.8851 78.648 59.9671 79.644 59.9671 81.636V87H58.3291V77.136H59.9671V78.738ZM73.6518 81.69C73.6518 82.002 73.6338 82.332 73.5978 82.68H65.7138C65.7738 83.652 66.1038 84.414 66.7038 84.966C67.3158 85.506 68.0538 85.776 68.9178 85.776C69.6258 85.776 70.2138 85.614 70.6818 85.29C71.1618 84.954 71.4978 84.51 71.6898 83.958H73.4538C73.1898 84.906 72.6618 85.68 71.8698 86.28C71.0778 86.868 70.0938 87.162 68.9178 87.162C67.9818 87.162 67.1418 86.952 66.3978 86.532C65.6658 86.112 65.0898 85.518 64.6698 84.75C64.2498 83.97 64.0398 83.07 64.0398 82.05C64.0398 81.03 64.2438 80.136 64.6518 79.368C65.0598 78.6 65.6298 78.012 66.3618 77.604C67.1058 77.184 67.9578 76.974 68.9178 76.974C69.8538 76.974 70.6818 77.178 71.4018 77.586C72.1218 77.994 72.6738 78.558 73.0578 79.278C73.4538 79.986 73.6518 80.79 73.6518 81.69ZM71.9598 81.348C71.9598 80.724 71.8218 80.19 71.5458 79.746C71.2698 79.29 70.8918 78.948 70.4118 78.72C69.9438 78.48 69.4218 78.36 68.8458 78.36C68.0178 78.36 67.3098 78.624 66.7218 79.152C66.1458 79.68 65.8158 80.412 65.7318 81.348H71.9598ZM74.8097 82.032C74.8097 81.024 75.0137 80.142 75.4217 79.386C75.8297 78.618 76.3877 78.024 77.0957 77.604C77.8157 77.184 78.6137 76.974 79.4897 76.974C80.3537 76.974 81.1037 77.16 81.7397 77.532C82.3757 77.904 82.8497 78.372 83.1617 78.936V77.136H84.8177V87H83.1617V85.164C82.8377 85.74 82.3517 86.22 81.7037 86.604C81.0677 86.976 80.3237 87.162 79.4717 87.162C78.5957 87.162 77.8037 86.946 77.0957 86.514C76.3877 86.082 75.8297 85.476 75.4217 84.696C75.0137 83.916 74.8097 83.028 74.8097 82.032ZM83.1617 82.05C83.1617 81.306 83.0117 80.658 82.7117 80.106C82.4117 79.554 82.0037 79.134 81.4877 78.846C80.9837 78.546 80.4257 78.396 79.8137 78.396C79.2017 78.396 78.6437 78.54 78.1397 78.828C77.6357 79.116 77.2337 79.536 76.9337 80.088C76.6337 80.64 76.4837 81.288 76.4837 82.032C76.4837 82.788 76.6337 83.448 76.9337 84.012C77.2337 84.564 77.6357 84.99 78.1397 85.29C78.6437 85.578 79.2017 85.722 79.8137 85.722C80.4257 85.722 80.9837 85.578 81.4877 85.29C82.0037 84.99 82.4117 84.564 82.7117 84.012C83.0117 83.448 83.1617 82.794 83.1617 82.05ZM88.8316 73.68V87H87.1936V73.68H88.8316ZM98.0712 79.71V81.096H90.8892V79.71H98.0712ZM102.751 78.486V84.3C102.751 84.78 102.853 85.122 103.057 85.326C103.261 85.518 103.615 85.614 104.119 85.614H105.325V87H103.849C102.937 87 102.253 86.79 101.797 86.37C101.341 85.95 101.113 85.26 101.113 84.3V78.486H99.8351V77.136H101.113V74.652H102.751V77.136H105.325V78.486H102.751ZM107.764 75.534C107.452 75.534 107.188 75.426 106.972 75.21C106.756 74.994 106.648 74.73 106.648 74.418C106.648 74.106 106.756 73.842 106.972 73.626C107.188 73.41 107.452 73.302 107.764 73.302C108.064 73.302 108.316 73.41 108.52 73.626C108.736 73.842 108.844 74.106 108.844 74.418C108.844 74.73 108.736 74.994 108.52 75.21C108.316 75.426 108.064 75.534 107.764 75.534ZM108.556 77.136V87H106.918V77.136H108.556ZM122.817 76.956C123.585 76.956 124.269 77.118 124.869 77.442C125.469 77.754 125.943 78.228 126.291 78.864C126.639 79.5 126.813 80.274 126.813 81.186V87H125.193V81.42C125.193 80.436 124.947 79.686 124.455 79.17C123.975 78.642 123.321 78.378 122.493 78.378C121.641 78.378 120.963 78.654 120.459 79.206C119.955 79.746 119.703 80.532 119.703 81.564V87H118.083V81.42C118.083 80.436 117.837 79.686 117.345 79.17C116.865 78.642 116.211 78.378 115.383 78.378C114.531 78.378 113.853 78.654 113.349 79.206C112.845 79.746 112.593 80.532 112.593 81.564V87H110.955V77.136H112.593V78.558C112.917 78.042 113.349 77.646 113.889 77.37C114.441 77.094 115.047 76.956 115.707 76.956C116.535 76.956 117.267 77.142 117.903 77.514C118.539 77.886 119.013 78.432 119.325 79.152C119.601 78.456 120.057 77.916 120.693 77.532C121.329 77.148 122.037 76.956 122.817 76.956ZM138.108 81.69C138.108 82.002 138.09 82.332 138.054 82.68H130.17C130.23 83.652 130.56 84.414 131.16 84.966C131.772 85.506 132.51 85.776 133.374 85.776C134.082 85.776 134.67 85.614 135.138 85.29C135.618 84.954 135.954 84.51 136.146 83.958H137.91C137.646 84.906 137.118 85.68 136.326 86.28C135.534 86.868 134.55 87.162 133.374 87.162C132.438 87.162 131.598 86.952 130.854 86.532C130.122 86.112 129.546 85.518 129.126 84.75C128.706 83.97 128.496 83.07 128.496 82.05C128.496 81.03 128.7 80.136 129.108 79.368C129.516 78.6 130.086 78.012 130.818 77.604C131.562 77.184 132.414 76.974 133.374 76.974C134.31 76.974 135.138 77.178 135.858 77.586C136.578 77.994 137.13 78.558 137.514 79.278C137.91 79.986 138.108 80.79 138.108 81.69ZM136.416 81.348C136.416 80.724 136.278 80.19 136.002 79.746C135.726 79.29 135.348 78.948 134.868 78.72C134.4 78.48 133.878 78.36 133.302 78.36C132.474 78.36 131.766 78.624 131.178 79.152C130.602 79.68 130.272 80.412 130.188 81.348H136.416ZM143.672 82.032C143.672 81.024 143.876 80.142 144.284 79.386C144.692 78.618 145.25 78.024 145.958 77.604C146.678 77.184 147.482 76.974 148.37 76.974C149.138 76.974 149.852 77.154 150.512 77.514C151.172 77.862 151.676 78.324 152.024 78.9V73.68H153.68V87H152.024V85.146C151.7 85.734 151.22 86.22 150.584 86.604C149.948 86.976 149.204 87.162 148.352 87.162C147.476 87.162 146.678 86.946 145.958 86.514C145.25 86.082 144.692 85.476 144.284 84.696C143.876 83.916 143.672 83.028 143.672 82.032ZM152.024 82.05C152.024 81.306 151.874 80.658 151.574 80.106C151.274 79.554 150.866 79.134 150.35 78.846C149.846 78.546 149.288 78.396 148.676 78.396C148.064 78.396 147.506 78.54 147.002 78.828C146.498 79.116 146.096 79.536 145.796 80.088C145.496 80.64 145.346 81.288 145.346 82.032C145.346 82.788 145.496 83.448 145.796 84.012C146.096 84.564 146.498 84.99 147.002 85.29C147.506 85.578 148.064 85.722 148.676 85.722C149.288 85.722 149.846 85.578 150.35 85.29C150.866 84.99 151.274 84.564 151.574 84.012C151.874 83.448 152.024 82.794 152.024 82.05ZM155.444 82.032C155.444 81.024 155.648 80.142 156.056 79.386C156.464 78.618 157.022 78.024 157.73 77.604C158.45 77.184 159.248 76.974 160.124 76.974C160.988 76.974 161.738 77.16 162.374 77.532C163.01 77.904 163.484 78.372 163.796 78.936V77.136H165.452V87H163.796V85.164C163.472 85.74 162.986 86.22 162.338 86.604C161.702 86.976 160.958 87.162 160.106 87.162C159.23 87.162 158.438 86.946 157.73 86.514C157.022 86.082 156.464 85.476 156.056 84.696C155.648 83.916 155.444 83.028 155.444 82.032ZM163.796 82.05C163.796 81.306 163.646 80.658 163.346 80.106C163.046 79.554 162.638 79.134 162.122 78.846C161.618 78.546 161.06 78.396 160.448 78.396C159.836 78.396 159.278 78.54 158.774 78.828C158.27 79.116 157.868 79.536 157.568 80.088C157.268 80.64 157.118 81.288 157.118 82.032C157.118 82.788 157.268 83.448 157.568 84.012C157.868 84.564 158.27 84.99 158.774 85.29C159.278 85.578 159.836 85.722 160.448 85.722C161.06 85.722 161.618 85.578 162.122 85.29C162.638 84.99 163.046 84.564 163.346 84.012C163.646 83.448 163.796 82.794 163.796 82.05ZM169.826 78.486V84.3C169.826 84.78 169.928 85.122 170.132 85.326C170.336 85.518 170.69 85.614 171.194 85.614H172.4V87H170.924C170.012 87 169.328 86.79 168.872 86.37C168.416 85.95 168.188 85.26 168.188 84.3V78.486H166.91V77.136H168.188V74.652H169.826V77.136H172.4V78.486H169.826ZM173.381 82.032C173.381 81.024 173.585 80.142 173.993 79.386C174.401 78.618 174.959 78.024 175.667 77.604C176.387 77.184 177.185 76.974 178.061 76.974C178.925 76.974 179.675 77.16 180.311 77.532C180.947 77.904 181.421 78.372 181.733 78.936V77.136H183.389V87H181.733V85.164C181.409 85.74 180.923 86.22 180.275 86.604C179.639 86.976 178.895 87.162 178.043 87.162C177.167 87.162 176.375 86.946 175.667 86.514C174.959 86.082 174.401 85.476 173.993 84.696C173.585 83.916 173.381 83.028 173.381 82.032ZM181.733 82.05C181.733 81.306 181.583 80.658 181.283 80.106C180.983 79.554 180.575 79.134 180.059 78.846C179.555 78.546 178.997 78.396 178.385 78.396C177.773 78.396 177.215 78.54 176.711 78.828C176.207 79.116 175.805 79.536 175.505 80.088C175.205 80.64 175.055 81.288 175.055 82.032C175.055 82.788 175.205 83.448 175.505 84.012C175.805 84.564 176.207 84.99 176.711 85.29C177.215 85.578 177.773 85.722 178.385 85.722C178.997 85.722 179.555 85.578 180.059 85.29C180.575 84.99 180.983 84.564 181.283 84.012C181.583 83.448 181.733 82.794 181.733 82.05ZM192.169 78.486V84.3C192.169 84.78 192.271 85.122 192.475 85.326C192.679 85.518 193.033 85.614 193.537 85.614H194.743V87H193.267C192.355 87 191.671 86.79 191.215 86.37C190.759 85.95 190.531 85.26 190.531 84.3V78.486H189.253V77.136H190.531V74.652H192.169V77.136H194.743V78.486H192.169ZM200.638 87.162C199.714 87.162 198.874 86.952 198.118 86.532C197.374 86.112 196.786 85.518 196.354 84.75C195.934 83.97 195.724 83.07 195.724 82.05C195.724 81.042 195.94 80.154 196.372 79.386C196.816 78.606 197.416 78.012 198.172 77.604C198.928 77.184 199.774 76.974 200.71 76.974C201.646 76.974 202.492 77.184 203.248 77.604C204.004 78.012 204.598 78.6 205.03 79.368C205.474 80.136 205.696 81.03 205.696 82.05C205.696 83.07 205.468 83.97 205.012 84.75C204.568 85.518 203.962 86.112 203.194 86.532C202.426 86.952 201.574 87.162 200.638 87.162ZM200.638 85.722C201.226 85.722 201.778 85.584 202.294 85.308C202.81 85.032 203.224 84.618 203.536 84.066C203.86 83.514 204.022 82.842 204.022 82.05C204.022 81.258 203.866 80.586 203.554 80.034C203.242 79.482 202.834 79.074 202.33 78.81C201.826 78.534 201.28 78.396 200.692 78.396C200.092 78.396 199.54 78.534 199.036 78.81C198.544 79.074 198.148 79.482 197.848 80.034C197.548 80.586 197.398 81.258 197.398 82.05C197.398 82.854 197.542 83.532 197.83 84.084C198.13 84.636 198.526 85.05 199.018 85.326C199.51 85.59 200.05 85.722 200.638 85.722ZM211.252 82.032C211.252 81.024 211.456 80.142 211.864 79.386C212.272 78.618 212.83 78.024 213.538 77.604C214.258 77.184 215.062 76.974 215.95 76.974C216.718 76.974 217.432 77.154 218.092 77.514C218.752 77.862 219.256 78.324 219.604 78.9V73.68H221.26V87H219.604V85.146C219.28 85.734 218.8 86.22 218.164 86.604C217.528 86.976 216.784 87.162 215.932 87.162C215.056 87.162 214.258 86.946 213.538 86.514C212.83 86.082 212.272 85.476 211.864 84.696C211.456 83.916 211.252 83.028 211.252 82.032ZM219.604 82.05C219.604 81.306 219.454 80.658 219.154 80.106C218.854 79.554 218.446 79.134 217.93 78.846C217.426 78.546 216.868 78.396 216.256 78.396C215.644 78.396 215.086 78.54 214.582 78.828C214.078 79.116 213.676 79.536 213.376 80.088C213.076 80.64 212.926 81.288 212.926 82.032C212.926 82.788 213.076 83.448 213.376 84.012C213.676 84.564 214.078 84.99 214.582 85.29C215.086 85.578 215.644 85.722 216.256 85.722C216.868 85.722 217.426 85.578 217.93 85.29C218.446 84.99 218.854 84.564 219.154 84.012C219.454 83.448 219.604 82.794 219.604 82.05ZM232.636 81.69C232.636 82.002 232.618 82.332 232.582 82.68H224.698C224.758 83.652 225.088 84.414 225.688 84.966C226.3 85.506 227.038 85.776 227.902 85.776C228.61 85.776 229.198 85.614 229.666 85.29C230.146 84.954 230.482 84.51 230.674 83.958H232.438C232.174 84.906 231.646 85.68 230.854 86.28C230.062 86.868 229.078 87.162 227.902 87.162C226.966 87.162 226.126 86.952 225.382 86.532C224.65 86.112 224.074 85.518 223.654 84.75C223.234 83.97 223.024 83.07 223.024 82.05C223.024 81.03 223.228 80.136 223.636 79.368C224.044 78.6 224.614 78.012 225.346 77.604C226.09 77.184 226.942 76.974 227.902 76.974C228.838 76.974 229.666 77.178 230.386 77.586C231.106 77.994 231.658 78.558 232.042 79.278C232.438 79.986 232.636 80.79 232.636 81.69ZM230.944 81.348C230.944 80.724 230.806 80.19 230.53 79.746C230.254 79.29 229.876 78.948 229.396 78.72C228.928 78.48 228.406 78.36 227.83 78.36C227.002 78.36 226.294 78.624 225.706 79.152C225.13 79.68 224.8 80.412 224.716 81.348H230.944ZM236.044 73.68V87H234.406V73.68H236.044ZM239.289 75.534C238.977 75.534 238.713 75.426 238.497 75.21C238.281 74.994 238.173 74.73 238.173 74.418C238.173 74.106 238.281 73.842 238.497 73.626C238.713 73.41 238.977 73.302 239.289 73.302C239.589 73.302 239.841 73.41 240.045 73.626C240.261 73.842 240.369 74.106 240.369 74.418C240.369 74.73 240.261 74.994 240.045 75.21C239.841 75.426 239.589 75.534 239.289 75.534ZM240.081 77.136V87H238.443V77.136H240.081ZM246.153 85.488L249.213 77.136H250.959L247.089 87H245.181L241.311 77.136H243.075L246.153 85.488ZM261.179 81.69C261.179 82.002 261.161 82.332 261.125 82.68H253.241C253.301 83.652 253.631 84.414 254.231 84.966C254.843 85.506 255.581 85.776 256.445 85.776C257.153 85.776 257.741 85.614 258.209 85.29C258.689 84.954 259.025 84.51 259.217 83.958H260.981C260.717 84.906 260.189 85.68 259.397 86.28C258.605 86.868 257.621 87.162 256.445 87.162C255.509 87.162 254.669 86.952 253.925 86.532C253.193 86.112 252.617 85.518 252.197 84.75C251.777 83.97 251.567 83.07 251.567 82.05C251.567 81.03 251.771 80.136 252.179 79.368C252.587 78.6 253.157 78.012 253.889 77.604C254.633 77.184 255.485 76.974 256.445 76.974C257.381 76.974 258.209 77.178 258.929 77.586C259.649 77.994 260.201 78.558 260.585 79.278C260.981 79.986 261.179 80.79 261.179 81.69ZM259.487 81.348C259.487 80.724 259.349 80.19 259.073 79.746C258.797 79.29 258.419 78.948 257.939 78.72C257.471 78.48 256.949 78.36 256.373 78.36C255.545 78.36 254.837 78.624 254.249 79.152C253.673 79.68 253.343 80.412 253.259 81.348H259.487ZM264.587 78.738C264.875 78.174 265.283 77.736 265.811 77.424C266.351 77.112 267.005 76.956 267.773 76.956V78.648H267.341C265.505 78.648 264.587 79.644 264.587 81.636V87H262.949V77.136H264.587V78.738ZM24.024 108.738C24.312 108.174 24.72 107.736 25.248 107.424C25.788 107.112 26.442 106.956 27.21 106.956V108.648H26.778C24.942 108.648 24.024 109.644 24.024 111.636V117H22.386V107.136H24.024V108.738ZM37.7087 111.69C37.7087 112.002 37.6907 112.332 37.6547 112.68H29.7707C29.8307 113.652 30.1607 114.414 30.7607 114.966C31.3727 115.506 32.1107 115.776 32.9747 115.776C33.6827 115.776 34.2707 115.614 34.7387 115.29C35.2187 114.954 35.5547 114.51 35.7467 113.958H37.5107C37.2467 114.906 36.7187 115.68 35.9267 116.28C35.1347 116.868 34.1507 117.162 32.9747 117.162C32.0387 117.162 31.1987 116.952 30.4547 116.532C29.7227 116.112 29.1467 115.518 28.7267 114.75C28.3067 113.97 28.0967 113.07 28.0967 112.05C28.0967 111.03 28.3007 110.136 28.7087 109.368C29.1167 108.6 29.6867 108.012 30.4187 107.604C31.1627 107.184 32.0147 106.974 32.9747 106.974C33.9107 106.974 34.7387 107.178 35.4587 107.586C36.1787 107.994 36.7307 108.558 37.1147 109.278C37.5107 109.986 37.7087 110.79 37.7087 111.69ZM36.0167 111.348C36.0167 110.724 35.8787 110.19 35.6027 109.746C35.3267 109.29 34.9487 108.948 34.4687 108.72C34.0007 108.48 33.4787 108.36 32.9027 108.36C32.0747 108.36 31.3667 108.624 30.7787 109.152C30.2027 109.68 29.8727 110.412 29.7887 111.348H36.0167ZM41.1166 103.68V117H39.4786V103.68H41.1166ZM52.5162 111.69C52.5162 112.002 52.4982 112.332 52.4622 112.68H44.5782C44.6382 113.652 44.9682 114.414 45.5682 114.966C46.1802 115.506 46.9182 115.776 47.7822 115.776C48.4902 115.776 49.0782 115.614 49.5462 115.29C50.0262 114.954 50.3622 114.51 50.5542 113.958H52.3182C52.0542 114.906 51.5262 115.68 50.7342 116.28C49.9422 116.868 48.9582 117.162 47.7822 117.162C46.8462 117.162 46.0062 116.952 45.2622 116.532C44.5302 116.112 43.9542 115.518 43.5342 114.75C43.1142 113.97 42.9042 113.07 42.9042 112.05C42.9042 111.03 43.1082 110.136 43.5162 109.368C43.9242 108.6 44.4942 108.012 45.2262 107.604C45.9702 107.184 46.8222 106.974 47.7822 106.974C48.7182 106.974 49.5462 107.178 50.2662 107.586C50.9862 107.994 51.5382 108.558 51.9222 109.278C52.3182 109.986 52.5162 110.79 52.5162 111.69ZM50.8242 111.348C50.8242 110.724 50.6862 110.19 50.4102 109.746C50.1342 109.29 49.7562 108.948 49.2762 108.72C48.8082 108.48 48.2862 108.36 47.7102 108.36C46.8822 108.36 46.1742 108.624 45.5862 109.152C45.0102 109.68 44.6802 110.412 44.5962 111.348H50.8242ZM57.9581 115.488L61.0181 107.136H62.7641L58.8941 117H56.9861L53.1161 107.136H54.8801L57.9581 115.488ZM63.3718 112.032C63.3718 111.024 63.5758 110.142 63.9838 109.386C64.3918 108.618 64.9498 108.024 65.6578 107.604C66.3778 107.184 67.1758 106.974 68.0518 106.974C68.9158 106.974 69.6658 107.16 70.3018 107.532C70.9378 107.904 71.4118 108.372 71.7238 108.936V107.136H73.3798V117H71.7238V115.164C71.3998 115.74 70.9138 116.22 70.2658 116.604C69.6298 116.976 68.8858 117.162 68.0338 117.162C67.1578 117.162 66.3658 116.946 65.6578 116.514C64.9498 116.082 64.3918 115.476 63.9838 114.696C63.5758 113.916 63.3718 113.028 63.3718 112.032ZM71.7238 112.05C71.7238 111.306 71.5738 110.658 71.2738 110.106C70.9738 109.554 70.5658 109.134 70.0498 108.846C69.5458 108.546 68.9878 108.396 68.3758 108.396C67.7638 108.396 67.2058 108.54 66.7018 108.828C66.1978 109.116 65.7958 109.536 65.4958 110.088C65.1958 110.64 65.0458 111.288 65.0458 112.032C65.0458 112.788 65.1958 113.448 65.4958 114.012C65.7958 114.564 66.1978 114.99 66.7018 115.29C67.2058 115.578 67.7638 115.722 68.3758 115.722C68.9878 115.722 69.5458 115.578 70.0498 115.29C70.5658 114.99 70.9738 114.564 71.2738 114.012C71.5738 113.448 71.7238 112.794 71.7238 112.05ZM80.5617 106.956C81.7617 106.956 82.7337 107.322 83.4777 108.054C84.2217 108.774 84.5937 109.818 84.5937 111.186V117H82.9737V111.42C82.9737 110.436 82.7277 109.686 82.2357 109.17C81.7437 108.642 81.0717 108.378 80.2197 108.378C79.3557 108.378 78.6657 108.648 78.1497 109.188C77.6457 109.728 77.3937 110.514 77.3937 111.546V117H75.7557V107.136H77.3937V108.54C77.7177 108.036 78.1557 107.646 78.7077 107.37C79.2717 107.094 79.8897 106.956 80.5617 106.956ZM88.8752 108.486V114.3C88.8752 114.78 88.9772 115.122 89.1812 115.326C89.3852 115.518 89.7392 115.614 90.2432 115.614H91.4492V117H89.9732C89.0612 117 88.3772 116.79 87.9212 116.37C87.4652 115.95 87.2372 115.26 87.2372 114.3V108.486H85.9592V107.136H87.2372V104.652H88.8752V107.136H91.4492V108.486H88.8752ZM96.8364 112.032C96.8364 111.024 97.0404 110.142 97.4484 109.386C97.8564 108.618 98.4144 108.024 99.1224 107.604C99.8424 107.184 100.64 106.974 101.516 106.974C102.38 106.974 103.13 107.16 103.766 107.532C104.402 107.904 104.876 108.372 105.188 108.936V107.136H106.844V117H105.188V115.164C104.864 115.74 104.378 116.22 103.73 116.604C103.094 116.976 102.35 117.162 101.498 117.162C100.622 117.162 99.8304 116.946 99.1224 116.514C98.4144 116.082 97.8564 115.476 97.4484 114.696C97.0404 113.916 96.8364 113.028 96.8364 112.032ZM105.188 112.05C105.188 111.306 105.038 110.658 104.738 110.106C104.438 109.554 104.03 109.134 103.514 108.846C103.01 108.546 102.452 108.396 101.84 108.396C101.228 108.396 100.67 108.54 100.166 108.828C99.6624 109.116 99.2604 109.536 98.9604 110.088C98.6604 110.64 98.5104 111.288 98.5104 112.032C98.5104 112.788 98.6604 113.448 98.9604 114.012C99.2604 114.564 99.6624 114.99 100.166 115.29C100.67 115.578 101.228 115.722 101.84 115.722C102.452 115.722 103.01 115.578 103.514 115.29C104.03 114.99 104.438 114.564 104.738 114.012C105.038 113.448 105.188 112.794 105.188 112.05ZM108.608 112.032C108.608 111.024 108.812 110.142 109.22 109.386C109.628 108.618 110.186 108.024 110.894 107.604C111.614 107.184 112.418 106.974 113.306 106.974C114.074 106.974 114.788 107.154 115.448 107.514C116.108 107.862 116.612 108.324 116.96 108.9V103.68H118.616V117H116.96V115.146C116.636 115.734 116.156 116.22 115.52 116.604C114.884 116.976 114.14 117.162 113.288 117.162C112.412 117.162 111.614 116.946 110.894 116.514C110.186 116.082 109.628 115.476 109.22 114.696C108.812 113.916 108.608 113.028 108.608 112.032ZM116.96 112.05C116.96 111.306 116.81 110.658 116.51 110.106C116.21 109.554 115.802 109.134 115.286 108.846C114.782 108.546 114.224 108.396 113.612 108.396C113 108.396 112.442 108.54 111.938 108.828C111.434 109.116 111.032 109.536 110.732 110.088C110.432 110.64 110.282 111.288 110.282 112.032C110.282 112.788 110.432 113.448 110.732 114.012C111.032 114.564 111.434 114.99 111.938 115.29C112.442 115.578 113 115.722 113.612 115.722C114.224 115.722 114.782 115.578 115.286 115.29C115.802 114.99 116.21 114.564 116.51 114.012C116.81 113.448 116.96 112.794 116.96 112.05ZM124.484 117.162C123.728 117.162 123.05 117.036 122.45 116.784C121.85 116.52 121.376 116.16 121.028 115.704C120.68 115.236 120.488 114.702 120.452 114.102H122.144C122.192 114.594 122.42 114.996 122.828 115.308C123.248 115.62 123.794 115.776 124.466 115.776C125.09 115.776 125.582 115.638 125.942 115.362C126.302 115.086 126.482 114.738 126.482 114.318C126.482 113.886 126.29 113.568 125.906 113.364C125.522 113.148 124.928 112.938 124.124 112.734C123.392 112.542 122.792 112.35 122.324 112.158C121.868 111.954 121.472 111.66 121.136 111.276C120.812 110.88 120.65 110.364 120.65 109.728C120.65 109.224 120.8 108.762 121.1 108.342C121.4 107.922 121.826 107.592 122.378 107.352C122.93 107.1 123.56 106.974 124.268 106.974C125.36 106.974 126.242 107.25 126.914 107.802C127.586 108.354 127.946 109.11 127.994 110.07H126.356C126.32 109.554 126.11 109.14 125.726 108.828C125.354 108.516 124.85 108.36 124.214 108.36C123.626 108.36 123.158 108.486 122.81 108.738C122.462 108.99 122.288 109.32 122.288 109.728C122.288 110.052 122.39 110.322 122.594 110.538C122.81 110.742 123.074 110.91 123.386 111.042C123.71 111.162 124.154 111.3 124.718 111.456C125.426 111.648 126.002 111.84 126.446 112.032C126.89 112.212 127.268 112.488 127.58 112.86C127.904 113.232 128.072 113.718 128.084 114.318C128.084 114.858 127.934 115.344 127.634 115.776C127.334 116.208 126.908 116.55 126.356 116.802C125.816 117.042 125.192 117.162 124.484 117.162ZM136.409 108.486V114.3C136.409 114.78 136.511 115.122 136.715 115.326C136.919 115.518 137.273 115.614 137.777 115.614H138.983V117H137.507C136.595 117 135.911 116.79 135.455 116.37C134.999 115.95 134.771 115.26 134.771 114.3V108.486H133.493V107.136H134.771V104.652H136.409V107.136H138.983V108.486H136.409ZM144.877 117.162C143.953 117.162 143.113 116.952 142.357 116.532C141.613 116.112 141.025 115.518 140.593 114.75C140.173 113.97 139.963 113.07 139.963 112.05C139.963 111.042 140.179 110.154 140.611 109.386C141.055 108.606 141.655 108.012 142.411 107.604C143.167 107.184 144.013 106.974 144.949 106.974C145.885 106.974 146.731 107.184 147.487 107.604C148.243 108.012 148.837 108.6 149.269 109.368C149.713 110.136 149.935 111.03 149.935 112.05C149.935 113.07 149.707 113.97 149.251 114.75C148.807 115.518 148.201 116.112 147.433 116.532C146.665 116.952 145.813 117.162 144.877 117.162ZM144.877 115.722C145.465 115.722 146.017 115.584 146.533 115.308C147.049 115.032 147.463 114.618 147.775 114.066C148.099 113.514 148.261 112.842 148.261 112.05C148.261 111.258 148.105 110.586 147.793 110.034C147.481 109.482 147.073 109.074 146.569 108.81C146.065 108.534 145.519 108.396 144.931 108.396C144.331 108.396 143.779 108.534 143.275 108.81C142.783 109.074 142.387 109.482 142.087 110.034C141.787 110.586 141.637 111.258 141.637 112.05C141.637 112.854 141.781 113.532 142.069 114.084C142.369 114.636 142.765 115.05 143.257 115.326C143.749 115.59 144.289 115.722 144.877 115.722ZM158.102 108.486V114.3C158.102 114.78 158.204 115.122 158.408 115.326C158.612 115.518 158.966 115.614 159.47 115.614H160.676V117H159.2C158.288 117 157.604 116.79 157.148 116.37C156.692 115.95 156.464 115.26 156.464 114.3V108.486H155.186V107.136H156.464V104.652H158.102V107.136H160.676V108.486H158.102ZM167.164 106.956C167.908 106.956 168.58 107.118 169.18 107.442C169.78 107.754 170.248 108.228 170.584 108.864C170.932 109.5 171.106 110.274 171.106 111.186V117H169.486V111.42C169.486 110.436 169.24 109.686 168.748 109.17C168.256 108.642 167.584 108.378 166.732 108.378C165.868 108.378 165.178 108.648 164.662 109.188C164.158 109.728 163.906 110.514 163.906 111.546V117H162.268V103.68H163.906V108.54C164.23 108.036 164.674 107.646 165.238 107.37C165.814 107.094 166.456 106.956 167.164 106.956ZM182.39 111.69C182.39 112.002 182.372 112.332 182.336 112.68H174.452C174.512 113.652 174.842 114.414 175.442 114.966C176.054 115.506 176.792 115.776 177.656 115.776C178.364 115.776 178.952 115.614 179.42 115.29C179.9 114.954 180.236 114.51 180.428 113.958H182.192C181.928 114.906 181.4 115.68 180.608 116.28C179.816 116.868 178.832 117.162 177.656 117.162C176.72 117.162 175.88 116.952 175.136 116.532C174.404 116.112 173.828 115.518 173.408 114.75C172.988 113.97 172.778 113.07 172.778 112.05C172.778 111.03 172.982 110.136 173.39 109.368C173.798 108.6 174.368 108.012 175.1 107.604C175.844 107.184 176.696 106.974 177.656 106.974C178.592 106.974 179.42 107.178 180.14 107.586C180.86 107.994 181.412 108.558 181.796 109.278C182.192 109.986 182.39 110.79 182.39 111.69ZM180.698 111.348C180.698 110.724 180.56 110.19 180.284 109.746C180.008 109.29 179.63 108.948 179.15 108.72C178.682 108.48 178.16 108.36 177.584 108.36C176.756 108.36 176.048 108.624 175.46 109.152C174.884 109.68 174.554 110.412 174.47 111.348H180.698ZM190.204 108.738C190.492 108.174 190.9 107.736 191.428 107.424C191.968 107.112 192.622 106.956 193.39 106.956V108.648H192.958C191.122 108.648 190.204 109.644 190.204 111.636V117H188.566V107.136H190.204V108.738ZM195.735 105.534C195.423 105.534 195.159 105.426 194.943 105.21C194.727 104.994 194.619 104.73 194.619 104.418C194.619 104.106 194.727 103.842 194.943 103.626C195.159 103.41 195.423 103.302 195.735 103.302C196.035 103.302 196.287 103.41 196.491 103.626C196.707 103.842 196.815 104.106 196.815 104.418C196.815 104.73 196.707 104.994 196.491 105.21C196.287 105.426 196.035 105.534 195.735 105.534ZM196.527 107.136V117H194.889V107.136H196.527ZM202.995 106.974C203.847 106.974 204.591 107.16 205.227 107.532C205.875 107.904 206.355 108.372 206.667 108.936V107.136H208.323V117.216C208.323 118.116 208.131 118.914 207.747 119.61C207.363 120.318 206.811 120.87 206.091 121.266C205.383 121.662 204.555 121.86 203.607 121.86C202.311 121.86 201.231 121.554 200.367 120.942C199.503 120.33 198.993 119.496 198.837 118.44H200.457C200.637 119.04 201.009 119.52 201.573 119.88C202.137 120.252 202.815 120.438 203.607 120.438C204.507 120.438 205.239 120.156 205.803 119.592C206.379 119.028 206.667 118.236 206.667 117.216V115.146C206.343 115.722 205.863 116.202 205.227 116.586C204.591 116.97 203.847 117.162 202.995 117.162C202.119 117.162 201.321 116.946 200.601 116.514C199.893 116.082 199.335 115.476 198.927 114.696C198.519 113.916 198.315 113.028 198.315 112.032C198.315 111.024 198.519 110.142 198.927 109.386C199.335 108.618 199.893 108.024 200.601 107.604C201.321 107.184 202.119 106.974 202.995 106.974ZM206.667 112.05C206.667 111.306 206.517 110.658 206.217 110.106C205.917 109.554 205.509 109.134 204.993 108.846C204.489 108.546 203.931 108.396 203.319 108.396C202.707 108.396 202.149 108.54 201.645 108.828C201.141 109.116 200.739 109.536 200.439 110.088C200.139 110.64 199.989 111.288 199.989 112.032C199.989 112.788 200.139 113.448 200.439 114.012C200.739 114.564 201.141 114.99 201.645 115.29C202.149 115.578 202.707 115.722 203.319 115.722C203.931 115.722 204.489 115.578 204.993 115.29C205.509 114.99 205.917 114.564 206.217 114.012C206.517 113.448 206.667 112.794 206.667 112.05ZM215.594 106.956C216.338 106.956 217.01 107.118 217.61 107.442C218.21 107.754 218.678 108.228 219.014 108.864C219.362 109.5 219.536 110.274 219.536 111.186V117H217.916V111.42C217.916 110.436 217.67 109.686 217.178 109.17C216.686 108.642 216.014 108.378 215.162 108.378C214.298 108.378 213.608 108.648 213.092 109.188C212.588 109.728 212.336 110.514 212.336 111.546V117H210.698V103.68H212.336V108.54C212.66 108.036 213.104 107.646 213.668 107.37C214.244 107.094 214.886 106.956 215.594 106.956ZM223.818 108.486V114.3C223.818 114.78 223.92 115.122 224.124 115.326C224.328 115.518 224.682 115.614 225.186 115.614H226.392V117H224.916C224.004 117 223.32 116.79 222.864 116.37C222.408 115.95 222.18 115.26 222.18 114.3V108.486H220.902V107.136H222.18V104.652H223.818V107.136H226.392V108.486H223.818ZM241.139 107.136V117H239.501V115.542C239.189 116.046 238.751 116.442 238.187 116.73C237.635 117.006 237.023 117.144 236.351 117.144C235.583 117.144 234.893 116.988 234.281 116.676C233.669 116.352 233.183 115.872 232.823 115.236C232.475 114.6 232.301 113.826 232.301 112.914V107.136H233.921V112.698C233.921 113.67 234.167 114.42 234.659 114.948C235.151 115.464 235.823 115.722 236.675 115.722C237.551 115.722 238.241 115.452 238.745 114.912C239.249 114.372 239.501 113.586 239.501 112.554V107.136H241.139ZM247.005 117.162C246.249 117.162 245.571 117.036 244.971 116.784C244.371 116.52 243.897 116.16 243.549 115.704C243.201 115.236 243.009 114.702 242.973 114.102H244.665C244.713 114.594 244.941 114.996 245.349 115.308C245.769 115.62 246.315 115.776 246.987 115.776C247.611 115.776 248.103 115.638 248.463 115.362C248.823 115.086 249.003 114.738 249.003 114.318C249.003 113.886 248.811 113.568 248.427 113.364C248.043 113.148 247.449 112.938 246.645 112.734C245.913 112.542 245.313 112.35 244.845 112.158C244.389 111.954 243.993 111.66 243.657 111.276C243.333 110.88 243.171 110.364 243.171 109.728C243.171 109.224 243.321 108.762 243.621 108.342C243.921 107.922 244.347 107.592 244.899 107.352C245.451 107.1 246.081 106.974 246.789 106.974C247.881 106.974 248.763 107.25 249.435 107.802C250.107 108.354 250.467 109.11 250.515 110.07H248.877C248.841 109.554 248.631 109.14 248.247 108.828C247.875 108.516 247.371 108.36 246.735 108.36C246.147 108.36 245.679 108.486 245.331 108.738C244.983 108.99 244.809 109.32 244.809 109.728C244.809 110.052 244.911 110.322 245.115 110.538C245.331 110.742 245.595 110.91 245.907 111.042C246.231 111.162 246.675 111.3 247.239 111.456C247.947 111.648 248.523 111.84 248.967 112.032C249.411 112.212 249.789 112.488 250.101 112.86C250.425 113.232 250.593 113.718 250.605 114.318C250.605 114.858 250.455 115.344 250.155 115.776C249.855 116.208 249.429 116.55 248.877 116.802C248.337 117.042 247.713 117.162 247.005 117.162ZM261.525 111.69C261.525 112.002 261.507 112.332 261.471 112.68H253.587C253.647 113.652 253.977 114.414 254.577 114.966C255.189 115.506 255.927 115.776 256.791 115.776C257.499 115.776 258.087 115.614 258.555 115.29C259.035 114.954 259.371 114.51 259.563 113.958H261.327C261.063 114.906 260.535 115.68 259.743 116.28C258.951 116.868 257.967 117.162 256.791 117.162C255.855 117.162 255.015 116.952 254.271 116.532C253.539 116.112 252.963 115.518 252.543 114.75C252.123 113.97 251.913 113.07 251.913 112.05C251.913 111.03 252.117 110.136 252.525 109.368C252.933 108.6 253.503 108.012 254.235 107.604C254.979 107.184 255.831 106.974 256.791 106.974C257.727 106.974 258.555 107.178 259.275 107.586C259.995 107.994 260.547 108.558 260.931 109.278C261.327 109.986 261.525 110.79 261.525 111.69ZM259.833 111.348C259.833 110.724 259.695 110.19 259.419 109.746C259.143 109.29 258.765 108.948 258.285 108.72C257.817 108.48 257.295 108.36 256.719 108.36C255.891 108.36 255.183 108.624 254.595 109.152C254.019 109.68 253.689 110.412 253.605 111.348H259.833ZM264.933 108.738C265.221 108.174 265.629 107.736 266.157 107.424C266.697 107.112 267.351 106.956 268.119 106.956V108.648H267.687C265.851 108.648 264.933 109.644 264.933 111.636V117H263.295V107.136H264.933V108.738ZM273.109 117.162C272.353 117.162 271.675 117.036 271.075 116.784C270.475 116.52 270.001 116.16 269.653 115.704C269.305 115.236 269.113 114.702 269.077 114.102H270.769C270.817 114.594 271.045 114.996 271.453 115.308C271.873 115.62 272.419 115.776 273.091 115.776C273.715 115.776 274.207 115.638 274.567 115.362C274.927 115.086 275.107 114.738 275.107 114.318C275.107 113.886 274.915 113.568 274.531 113.364C274.147 113.148 273.553 112.938 272.749 112.734C272.017 112.542 271.417 112.35 270.949 112.158C270.493 111.954 270.097 111.66 269.761 111.276C269.437 110.88 269.275 110.364 269.275 109.728C269.275 109.224 269.425 108.762 269.725 108.342C270.025 107.922 270.451 107.592 271.003 107.352C271.555 107.1 272.185 106.974 272.893 106.974C273.985 106.974 274.867 107.25 275.539 107.802C276.211 108.354 276.571 109.11 276.619 110.07H274.981C274.945 109.554 274.735 109.14 274.351 108.828C273.979 108.516 273.475 108.36 272.839 108.36C272.251 108.36 271.783 108.486 271.435 108.738C271.087 108.99 270.913 109.32 270.913 109.728C270.913 110.052 271.015 110.322 271.219 110.538C271.435 110.742 271.699 110.91 272.011 111.042C272.335 111.162 272.779 111.3 273.343 111.456C274.051 111.648 274.627 111.84 275.071 112.032C275.515 112.212 275.893 112.488 276.205 112.86C276.529 113.232 276.697 113.718 276.709 114.318C276.709 114.858 276.559 115.344 276.259 115.776C275.959 116.208 275.533 116.55 274.981 116.802C274.441 117.042 273.817 117.162 273.109 117.162ZM279.152 117.108C278.84 117.108 278.576 117 278.36 116.784C278.144 116.568 278.036 116.304 278.036 115.992C278.036 115.68 278.144 115.416 278.36 115.2C278.576 114.984 278.84 114.876 279.152 114.876C279.452 114.876 279.704 114.984 279.908 115.2C280.124 115.416 280.232 115.68 280.232 115.992C280.232 116.304 280.124 116.568 279.908 116.784C279.704 117 279.452 117.108 279.152 117.108Z" fill="#1A202A"/>
<g clip-path="url(#clip1_15_9204)">
<path d="M309.052 381.666C319.956 386.816 312.4 393.913 304.583 395.176C296.753 396.423 299.474 407.613 299.474 407.613L282.323 426.183C282.323 426.183 272.221 429.031 275.894 434.954C279.568 440.877 286.511 451.582 286.511 451.582C286.511 451.582 316.85 420.011 323.627 412.926C330.403 405.841 334.757 414.371 339.301 411.183C343.859 407.998 355.012 397.279 355.012 397.279L336.343 381.982L309.066 381.668L309.052 381.666Z" fill="#3B7FD1"/>
<path d="M303.413 379.107L368.807 410.002C368.807 410.002 413.726 403.001 394.286 356.043L328.889 325.161" fill="#3B7FD1"/>
<path d="M328.892 325.15C328.892 325.15 266.655 298.046 259.583 257.375C232.078 315.613 199.27 385.06 199.27 385.06C199.27 385.06 262.328 359.617 310.289 382.265C338.691 370.532 340.402 337.07 328.892 325.15Z" fill="#F6B76F"/>
<path d="M247.437 330.661C227.657 372.543 196.346 399.277 177.511 390.382C158.677 381.486 159.45 340.321 179.23 298.439C199.023 256.572 230.319 229.837 249.154 238.732C267.989 247.627 267.216 288.793 247.435 330.675L247.437 330.661Z" fill="#FDFDFD"/>
<path opacity="0.4" d="M186.394 392.056C181.938 374.177 186.573 345.876 200.11 317.218C217.04 281.388 242.39 256.654 261.155 255.835C265.611 273.715 260.976 302.015 247.439 330.674C230.51 366.503 205.16 391.238 186.394 392.056Z" fill="#D3D3D3"/>
<path d="M220.086 315.272L219.126 314.822L218.357 317.693L216.628 320.114L217.586 320.578L214.82 330.886L236.165 351.071C240.19 344.803 243.991 337.968 247.427 330.676C250.666 323.81 253.392 316.978 255.604 310.29L226.276 306.597L220.07 315.284L220.086 315.272Z" fill="#3B7FD1"/>
<path d="M251.652 332.652C272.84 287.769 272.62 244.664 251.146 234.521C229.672 224.378 196.235 251.585 175.033 296.466C153.83 341.346 154.05 384.452 175.538 394.597C197.012 404.74 230.45 377.532 251.652 332.652ZM243.241 328.674C222.997 371.515 193.953 392.997 179.516 386.186C165.081 379.361 163.213 343.285 183.457 300.445C203.687 257.603 232.745 236.122 247.182 242.933C261.618 249.758 263.486 285.834 243.24 328.688L243.241 328.674Z" fill="#FDE184"/>
<path d="M226.512 321.539C223.35 328.244 218.112 332.417 214.818 330.872C211.526 329.313 211.432 322.624 214.596 315.904C217.758 309.199 222.996 305.026 226.29 306.571C229.582 308.13 229.676 314.82 226.512 321.539Z" fill="#FFB102"/>
<path opacity="0.1" d="M337.142 329.047L389.568 353.803C391.827 359.726 397.203 376.622 390.686 389.442C363.102 377.657 335.106 366.427 335.106 366.427C335.106 366.427 347.13 348.776 337.142 329.047Z" fill="#EDE0DA"/>
<path opacity="0.4" d="M217.627 312.917C215.422 316.719 215.081 320.65 216.882 321.705C218.684 322.759 221.945 320.523 224.152 316.707C226.357 312.904 226.699 308.959 224.896 307.919C223.093 306.879 219.834 309.101 217.627 312.917Z" fill="#FDFDFD"/>
</g>
<path d="M52.651 351.903L52.7194 352.218L53.0348 352.286L58.7828 353.521L53.0348 354.755L52.7194 354.823L52.651 355.139L51.4166 360.887L50.1823 355.139L50.1139 354.823L49.7985 354.755L44.0494 353.521L49.7985 352.286L50.1139 352.218L50.1823 351.903L51.4166 346.154L52.651 351.903Z" fill="#0A85D1"/>
<path d="M52.651 351.903L52.7194 352.218L53.0348 352.286L58.7828 353.521L53.0348 354.755L52.7194 354.823L52.651 355.139L51.4166 360.887L50.1823 355.139L50.1139 354.823L49.7985 354.755L44.0494 353.521L49.7985 352.286L50.1139 352.218L50.1823 351.903L51.4166 346.154L52.651 351.903Z" fill="#0A85D1"/>
<path d="M52.651 351.903L52.7194 352.218L53.0348 352.286L58.7828 353.521L53.0348 354.755L52.7194 354.823L52.651 355.139L51.4166 360.887L50.1823 355.139L50.1139 354.823L49.7985 354.755L44.0494 353.521L49.7985 352.286L50.1139 352.218L50.1823 351.903L51.4166 346.154L52.651 351.903Z" fill="#0A85D1"/>
<path d="M52.651 351.903L52.7194 352.218L53.0348 352.286L58.7828 353.521L53.0348 354.755L52.7194 354.823L52.651 355.139L51.4166 360.887L50.1823 355.139L50.1139 354.823L49.7985 354.755L44.0494 353.521L49.7985 352.286L50.1139 352.218L50.1823 351.903L51.4166 346.154L52.651 351.903Z" stroke="#0A85D1"/>
<path d="M208.651 417.903L208.719 418.218L209.035 418.286L214.783 419.521L209.035 420.755L208.719 420.823L208.651 421.139L207.417 426.887L206.182 421.139L206.114 420.823L205.798 420.755L200.049 419.521L205.798 418.286L206.114 418.218L206.182 417.903L207.417 412.154L208.651 417.903Z" fill="#0A85D1"/>
<path d="M208.651 417.903L208.719 418.218L209.035 418.286L214.783 419.521L209.035 420.755L208.719 420.823L208.651 421.139L207.417 426.887L206.182 421.139L206.114 420.823L205.798 420.755L200.049 419.521L205.798 418.286L206.114 418.218L206.182 417.903L207.417 412.154L208.651 417.903Z" fill="#0A85D1"/>
<path d="M208.651 417.903L208.719 418.218L209.035 418.286L214.783 419.521L209.035 420.755L208.719 420.823L208.651 421.139L207.417 426.887L206.182 421.139L206.114 420.823L205.798 420.755L200.049 419.521L205.798 418.286L206.114 418.218L206.182 417.903L207.417 412.154L208.651 417.903Z" fill="#0A85D1"/>
<path d="M208.651 417.903L208.719 418.218L209.035 418.286L214.783 419.521L209.035 420.755L208.719 420.823L208.651 421.139L207.417 426.887L206.182 421.139L206.114 420.823L205.798 420.755L200.049 419.521L205.798 418.286L206.114 418.218L206.182 417.903L207.417 412.154L208.651 417.903Z" stroke="#0A85D1"/>
<path d="M71.651 189.903L71.7194 190.218L72.0348 190.286L77.7828 191.521L72.0348 192.755L71.7194 192.823L71.651 193.139L70.4166 198.887L69.1823 193.139L69.1139 192.823L68.7985 192.755L63.0494 191.521L68.7985 190.286L69.1139 190.218L69.1823 189.903L70.4166 184.154L71.651 189.903Z" fill="#0A85D1"/>
<path d="M71.651 189.903L71.7194 190.218L72.0348 190.286L77.7828 191.521L72.0348 192.755L71.7194 192.823L71.651 193.139L70.4166 198.887L69.1823 193.139L69.1139 192.823L68.7985 192.755L63.0494 191.521L68.7985 190.286L69.1139 190.218L69.1823 189.903L70.4166 184.154L71.651 189.903Z" fill="#0A85D1"/>
<path d="M71.651 189.903L71.7194 190.218L72.0348 190.286L77.7828 191.521L72.0348 192.755L71.7194 192.823L71.651 193.139L70.4166 198.887L69.1823 193.139L69.1139 192.823L68.7985 192.755L63.0494 191.521L68.7985 190.286L69.1139 190.218L69.1823 189.903L70.4166 184.154L71.651 189.903Z" fill="#0A85D1"/>
<path d="M71.651 189.903L71.7194 190.218L72.0348 190.286L77.7828 191.521L72.0348 192.755L71.7194 192.823L71.651 193.139L70.4166 198.887L69.1823 193.139L69.1139 192.823L68.7985 192.755L63.0494 191.521L68.7985 190.286L69.1139 190.218L69.1823 189.903L70.4166 184.154L71.651 189.903Z" stroke="#0A85D1"/>
</g>
<rect x="1.16663" y="1.27075" width="345.667" height="428.412" rx="11.2647" stroke="#AED8FF"/>
<defs>
<clipPath id="clip0_15_9204">
<rect x="0.666626" y="0.770752" width="346.667" height="429.412" rx="11.7647" fill="white"/>
</clipPath>
<clipPath id="clip1_15_9204">
<rect width="245.986" height="227.552" fill="white" transform="matrix(-0.991683 -0.128703 -0.128703 0.991683 419.844 255.357)"/>
</clipPath>
</defs>
</svg>
