<svg width="303" height="439" viewBox="0 0 303 439" fill="none" xmlns="http://www.w3.org/2000/svg">
<g clip-path="url(#clip0_15_9615)">
<rect y="0.602051" width="303" height="438" rx="12" fill="#F8FBFF"/>
<path d="M40.8036 45.665V59.625H38.0036V50.545L34.2636 59.625H32.1436L28.3836 50.545V59.625H25.5836V45.665H28.7636L33.2036 56.045L37.6436 45.665H40.8036ZM48.0997 59.805C47.033 59.805 46.073 59.5717 45.2197 59.105C44.3664 58.625 43.693 57.9517 43.1997 57.085C42.7197 56.2183 42.4797 55.2183 42.4797 54.085C42.4797 52.9517 42.7264 51.9517 43.2197 51.085C43.7264 50.2183 44.413 49.5517 45.2797 49.085C46.1464 48.605 47.113 48.365 48.1797 48.365C49.2464 48.365 50.213 48.605 51.0797 49.085C51.9464 49.5517 52.6264 50.2183 53.1197 51.085C53.6264 51.9517 53.8797 52.9517 53.8797 54.085C53.8797 55.2183 53.6197 56.2183 53.0997 57.085C52.593 57.9517 51.8997 58.625 51.0197 59.105C50.153 59.5717 49.1797 59.805 48.0997 59.805ZM48.0997 57.365C48.6064 57.365 49.0797 57.245 49.5197 57.005C49.973 56.7517 50.333 56.3783 50.5997 55.885C50.8664 55.3917 50.9997 54.7917 50.9997 54.085C50.9997 53.0317 50.7197 52.225 50.1597 51.665C49.613 51.0917 48.9397 50.805 48.1397 50.805C47.3397 50.805 46.6664 51.0917 46.1197 51.665C45.5864 52.225 45.3197 53.0317 45.3197 54.085C45.3197 55.1383 45.5797 55.9517 46.0997 56.525C46.633 57.085 47.2997 57.365 48.0997 57.365ZM69.3015 48.385C70.6615 48.385 71.7548 48.805 72.5815 49.645C73.4215 50.4717 73.8415 51.6317 73.8415 53.125V59.625H71.0415V53.505C71.0415 52.6383 70.8215 51.9783 70.3815 51.525C69.9415 51.0583 69.3415 50.825 68.5815 50.825C67.8215 50.825 67.2148 51.0583 66.7615 51.525C66.3215 51.9783 66.1015 52.6383 66.1015 53.505V59.625H63.3015V53.505C63.3015 52.6383 63.0815 51.9783 62.6415 51.525C62.2015 51.0583 61.6015 50.825 60.8415 50.825C60.0681 50.825 59.4548 51.0583 59.0015 51.525C58.5615 51.9783 58.3415 52.6383 58.3415 53.505V59.625H55.5415V48.545H58.3415V49.885C58.7015 49.4183 59.1615 49.0517 59.7215 48.785C60.2948 48.5183 60.9215 48.385 61.6015 48.385C62.4681 48.385 63.2415 48.5717 63.9215 48.945C64.6015 49.305 65.1281 49.825 65.5015 50.505C65.8615 49.865 66.3815 49.3517 67.0615 48.965C67.7548 48.5783 68.5015 48.385 69.3015 48.385ZM86.4063 53.845C86.4063 54.245 86.3797 54.605 86.3263 54.925H78.2263C78.293 55.725 78.573 56.3517 79.0663 56.805C79.5597 57.2583 80.1663 57.485 80.8863 57.485C81.9263 57.485 82.6663 57.0383 83.1063 56.145H86.1263C85.8063 57.2117 85.193 58.0917 84.2863 58.785C83.3797 59.465 82.2663 59.805 80.9463 59.805C79.8797 59.805 78.9197 59.5717 78.0663 59.105C77.2263 58.625 76.5663 57.9517 76.0863 57.085C75.6197 56.2183 75.3863 55.2183 75.3863 54.085C75.3863 52.9383 75.6197 51.9317 76.0863 51.065C76.553 50.1983 77.2063 49.5317 78.0463 49.065C78.8863 48.5983 79.853 48.365 80.9463 48.365C81.9997 48.365 82.9397 48.5917 83.7663 49.045C84.6063 49.4983 85.253 50.145 85.7063 50.985C86.173 51.8117 86.4063 52.765 86.4063 53.845ZM83.5063 53.045C83.493 52.325 83.233 51.7517 82.7263 51.325C82.2197 50.885 81.5997 50.665 80.8663 50.665C80.173 50.665 79.5863 50.8783 79.1063 51.305C78.6397 51.7183 78.353 52.2983 78.2463 53.045H83.5063ZM94.1979 48.385C95.5179 48.385 96.5846 48.805 97.3979 49.645C98.2113 50.4717 98.6179 51.6317 98.6179 53.125V59.625H95.8179V53.505C95.8179 52.625 95.5979 51.9517 95.1579 51.485C94.7179 51.005 94.1179 50.765 93.3579 50.765C92.5846 50.765 91.9713 51.005 91.5179 51.485C91.0779 51.9517 90.8579 52.625 90.8579 53.505V59.625H88.0579V48.545H90.8579V49.925C91.2313 49.445 91.7046 49.0717 92.2779 48.805C92.8646 48.525 93.5046 48.385 94.1979 48.385ZM104.148 50.845V56.205C104.148 56.5783 104.235 56.8517 104.408 57.025C104.595 57.185 104.902 57.265 105.328 57.265H106.628V59.625H104.868C102.508 59.625 101.328 58.4783 101.328 56.185V50.845H100.008V48.545H101.328V45.805H104.148V48.545H106.628V50.845H104.148ZM116.77 51.305V53.665H108.29V51.305H116.77ZM127.438 52.465C128.225 52.6117 128.872 53.005 129.378 53.645C129.885 54.285 130.138 55.0183 130.138 55.845C130.138 56.5917 129.952 57.2517 129.578 57.825C129.218 58.385 128.692 58.825 127.998 59.145C127.305 59.465 126.485 59.625 125.538 59.625H119.518V45.665H125.278C126.225 45.665 127.038 45.8183 127.718 46.125C128.412 46.4317 128.932 46.8583 129.278 47.405C129.638 47.9517 129.818 48.5717 129.818 49.265C129.818 50.0783 129.598 50.7583 129.158 51.305C128.732 51.8517 128.158 52.2383 127.438 52.465ZM122.318 51.425H124.878C125.545 51.425 126.058 51.2783 126.418 50.985C126.778 50.6783 126.958 50.245 126.958 49.685C126.958 49.125 126.778 48.6917 126.418 48.385C126.058 48.0783 125.545 47.925 124.878 47.925H122.318V51.425ZM125.138 57.345C125.818 57.345 126.345 57.185 126.718 56.865C127.105 56.545 127.298 56.0917 127.298 55.505C127.298 54.905 127.098 54.4383 126.698 54.105C126.298 53.7583 125.758 53.585 125.078 53.585H122.318V57.345H125.138ZM131.258 54.045C131.258 52.925 131.478 51.9317 131.918 51.065C132.371 50.1983 132.978 49.5317 133.738 49.065C134.511 48.5983 135.371 48.365 136.318 48.365C137.144 48.365 137.864 48.5317 138.478 48.865C139.104 49.1983 139.604 49.6183 139.978 50.125V48.545H142.798V59.625H139.978V58.005C139.618 58.525 139.118 58.9583 138.478 59.305C137.851 59.6383 137.124 59.805 136.298 59.805C135.364 59.805 134.511 59.565 133.738 59.085C132.978 58.605 132.371 57.9317 131.918 57.065C131.478 56.185 131.258 55.1783 131.258 54.045ZM139.978 54.085C139.978 53.405 139.844 52.825 139.578 52.345C139.311 51.8517 138.951 51.4783 138.498 51.225C138.044 50.9583 137.558 50.825 137.038 50.825C136.518 50.825 136.038 50.9517 135.598 51.205C135.158 51.4583 134.798 51.8317 134.518 52.325C134.251 52.805 134.118 53.3783 134.118 54.045C134.118 54.7117 134.251 55.2983 134.518 55.805C134.798 56.2983 135.158 56.6783 135.598 56.945C136.051 57.2117 136.531 57.345 137.038 57.345C137.558 57.345 138.044 57.2183 138.498 56.965C138.951 56.6983 139.311 56.325 139.578 55.845C139.844 55.3517 139.978 54.765 139.978 54.085ZM149.38 59.805C148.473 59.805 147.66 59.645 146.94 59.325C146.22 58.9917 145.647 58.545 145.22 57.985C144.807 57.425 144.58 56.805 144.54 56.125H147.36C147.413 56.5517 147.62 56.905 147.98 57.185C148.353 57.465 148.813 57.605 149.36 57.605C149.893 57.605 150.307 57.4983 150.6 57.285C150.907 57.0717 151.06 56.7983 151.06 56.465C151.06 56.105 150.873 55.8383 150.5 55.665C150.14 55.4783 149.56 55.2783 148.76 55.065C147.933 54.865 147.253 54.6583 146.72 54.445C146.2 54.2317 145.747 53.905 145.36 53.465C144.987 53.025 144.8 52.4317 144.8 51.685C144.8 51.0717 144.973 50.5117 145.32 50.005C145.68 49.4983 146.187 49.0983 146.84 48.805C147.507 48.5117 148.287 48.365 149.18 48.365C150.5 48.365 151.553 48.6983 152.34 49.365C153.127 50.0183 153.56 50.905 153.64 52.025H150.96C150.92 51.585 150.733 51.2383 150.4 50.985C150.08 50.7183 149.647 50.585 149.1 50.585C148.593 50.585 148.2 50.6783 147.92 50.865C147.653 51.0517 147.52 51.3117 147.52 51.645C147.52 52.0183 147.707 52.305 148.08 52.505C148.453 52.6917 149.033 52.885 149.82 53.085C150.62 53.285 151.28 53.4917 151.8 53.705C152.32 53.9183 152.767 54.2517 153.14 54.705C153.527 55.145 153.727 55.7317 153.74 56.465C153.74 57.105 153.56 57.6783 153.2 58.185C152.853 58.6917 152.347 59.0917 151.68 59.385C151.027 59.665 150.26 59.805 149.38 59.805ZM165.946 53.845C165.946 54.245 165.92 54.605 165.866 54.925H157.766C157.833 55.725 158.113 56.3517 158.606 56.805C159.1 57.2583 159.706 57.485 160.426 57.485C161.466 57.485 162.206 57.0383 162.646 56.145H165.666C165.346 57.2117 164.733 58.0917 163.826 58.785C162.92 59.465 161.806 59.805 160.486 59.805C159.42 59.805 158.46 59.5717 157.606 59.105C156.766 58.625 156.106 57.9517 155.626 57.085C155.16 56.2183 154.926 55.2183 154.926 54.085C154.926 52.9383 155.16 51.9317 155.626 51.065C156.093 50.1983 156.746 49.5317 157.586 49.065C158.426 48.5983 159.393 48.365 160.486 48.365C161.54 48.365 162.48 48.5917 163.306 49.045C164.146 49.4983 164.793 50.145 165.246 50.985C165.713 51.8117 165.946 52.765 165.946 53.845ZM163.046 53.045C163.033 52.325 162.773 51.7517 162.266 51.325C161.76 50.885 161.14 50.665 160.406 50.665C159.713 50.665 159.126 50.8783 158.646 51.305C158.18 51.7183 157.893 52.2983 157.786 53.045H163.046ZM166.878 54.045C166.878 52.925 167.098 51.9317 167.538 51.065C167.991 50.1983 168.605 49.5317 169.378 49.065C170.151 48.5983 171.011 48.365 171.958 48.365C172.678 48.365 173.365 48.525 174.018 48.845C174.671 49.1517 175.191 49.565 175.578 50.085V44.825H178.418V59.625H175.578V57.985C175.231 58.5317 174.745 58.9717 174.118 59.305C173.491 59.6383 172.765 59.805 171.938 59.805C171.005 59.805 170.151 59.565 169.378 59.085C168.605 58.605 167.991 57.9317 167.538 57.065C167.098 56.185 166.878 55.1783 166.878 54.045ZM175.598 54.085C175.598 53.405 175.465 52.825 175.198 52.345C174.931 51.8517 174.571 51.4783 174.118 51.225C173.665 50.9583 173.178 50.825 172.658 50.825C172.138 50.825 171.658 50.9517 171.218 51.205C170.778 51.4583 170.418 51.8317 170.138 52.325C169.871 52.805 169.738 53.3783 169.738 54.045C169.738 54.7117 169.871 55.2983 170.138 55.805C170.418 56.2983 170.778 56.6783 171.218 56.945C171.671 57.2117 172.151 57.345 172.658 57.345C173.178 57.345 173.665 57.2183 174.118 56.965C174.571 56.6983 174.931 56.325 175.198 55.845C175.465 55.3517 175.598 54.765 175.598 54.085ZM194.634 45.665V47.925H190.914V59.625H188.114V47.925H184.394V45.665H194.634ZM195.565 54.045C195.565 52.925 195.785 51.9317 196.225 51.065C196.678 50.1983 197.285 49.5317 198.045 49.065C198.818 48.5983 199.678 48.365 200.625 48.365C201.451 48.365 202.171 48.5317 202.785 48.865C203.411 49.1983 203.911 49.6183 204.285 50.125V48.545H207.105V59.625H204.285V58.005C203.925 58.525 203.425 58.9583 202.785 59.305C202.158 59.6383 201.431 59.805 200.605 59.805C199.671 59.805 198.818 59.565 198.045 59.085C197.285 58.605 196.678 57.9317 196.225 57.065C195.785 56.185 195.565 55.1783 195.565 54.045ZM204.285 54.085C204.285 53.405 204.151 52.825 203.885 52.345C203.618 51.8517 203.258 51.4783 202.805 51.225C202.351 50.9583 201.865 50.825 201.345 50.825C200.825 50.825 200.345 50.9517 199.905 51.205C199.465 51.4583 199.105 51.8317 198.825 52.325C198.558 52.805 198.425 53.3783 198.425 54.045C198.425 54.7117 198.558 55.2983 198.825 55.805C199.105 56.2983 199.465 56.6783 199.905 56.945C200.358 57.2117 200.838 57.345 201.345 57.345C201.865 57.345 202.351 57.2183 202.805 56.965C203.258 56.6983 203.618 56.325 203.885 55.845C204.151 55.3517 204.285 54.765 204.285 54.085ZM212.247 50.265C212.607 49.6783 213.074 49.2183 213.647 48.885C214.234 48.5517 214.901 48.385 215.647 48.385V51.325H214.907C214.027 51.325 213.361 51.5317 212.907 51.945C212.467 52.3583 212.247 53.0783 212.247 54.105V59.625H209.447V48.545H212.247V50.265ZM221.481 48.365C222.308 48.365 223.034 48.5317 223.661 48.865C224.288 49.185 224.781 49.605 225.141 50.125V48.545H227.961V59.705C227.961 60.7317 227.754 61.645 227.341 62.445C226.928 63.2583 226.308 63.8983 225.481 64.365C224.654 64.845 223.654 65.085 222.481 65.085C220.908 65.085 219.614 64.7183 218.601 63.985C217.601 63.2517 217.034 62.2517 216.901 60.985H219.681C219.828 61.4917 220.141 61.8917 220.621 62.185C221.114 62.4917 221.708 62.645 222.401 62.645C223.214 62.645 223.874 62.3983 224.381 61.905C224.888 61.425 225.141 60.6917 225.141 59.705V57.985C224.781 58.505 224.281 58.9383 223.641 59.285C223.014 59.6317 222.294 59.805 221.481 59.805C220.548 59.805 219.694 59.565 218.921 59.085C218.148 58.605 217.534 57.9317 217.081 57.065C216.641 56.185 216.421 55.1783 216.421 54.045C216.421 52.925 216.641 51.9317 217.081 51.065C217.534 50.1983 218.141 49.5317 218.901 49.065C219.674 48.5983 220.534 48.365 221.481 48.365ZM225.141 54.085C225.141 53.405 225.008 52.825 224.741 52.345C224.474 51.8517 224.114 51.4783 223.661 51.225C223.208 50.9583 222.721 50.825 222.201 50.825C221.681 50.825 221.201 50.9517 220.761 51.205C220.321 51.4583 219.961 51.8317 219.681 52.325C219.414 52.805 219.281 53.3783 219.281 54.045C219.281 54.7117 219.414 55.2983 219.681 55.805C219.961 56.2983 220.321 56.6783 220.761 56.945C221.214 57.2117 221.694 57.345 222.201 57.345C222.721 57.345 223.208 57.2183 223.661 56.965C224.114 56.6983 224.474 56.325 224.741 55.845C225.008 55.3517 225.141 54.765 225.141 54.085ZM240.604 53.845C240.604 54.245 240.577 54.605 240.524 54.925H232.424C232.49 55.725 232.77 56.3517 233.264 56.805C233.757 57.2583 234.364 57.485 235.084 57.485C236.124 57.485 236.864 57.0383 237.304 56.145H240.324C240.004 57.2117 239.39 58.0917 238.484 58.785C237.577 59.465 236.464 59.805 235.144 59.805C234.077 59.805 233.117 59.5717 232.264 59.105C231.424 58.625 230.764 57.9517 230.284 57.085C229.817 56.2183 229.584 55.2183 229.584 54.085C229.584 52.9383 229.817 51.9317 230.284 51.065C230.75 50.1983 231.404 49.5317 232.244 49.065C233.084 48.5983 234.05 48.365 235.144 48.365C236.197 48.365 237.137 48.5917 237.964 49.045C238.804 49.4983 239.45 50.145 239.904 50.985C240.37 51.8117 240.604 52.765 240.604 53.845ZM237.704 53.045C237.69 52.325 237.43 51.7517 236.924 51.325C236.417 50.885 235.797 50.665 235.064 50.665C234.37 50.665 233.784 50.8783 233.304 51.305C232.837 51.7183 232.55 52.2983 232.444 53.045H237.704ZM245.515 50.845V56.205C245.515 56.5783 245.602 56.8517 245.775 57.025C245.962 57.185 246.269 57.265 246.695 57.265H247.995V59.625H246.235C243.875 59.625 242.695 58.4783 242.695 56.185V50.845H241.375V48.545H242.695V45.805H245.515V48.545H247.995V50.845H245.515ZM251.037 47.225C250.544 47.225 250.13 47.0717 249.797 46.765C249.477 46.445 249.317 46.0517 249.317 45.585C249.317 45.1183 249.477 44.7317 249.797 44.425C250.13 44.105 250.544 43.945 251.037 43.945C251.53 43.945 251.937 44.105 252.257 44.425C252.59 44.7317 252.757 45.1183 252.757 45.585C252.757 46.0517 252.59 46.445 252.257 46.765C251.937 47.0717 251.53 47.225 251.037 47.225ZM252.417 48.545V59.625H249.617V48.545H252.417ZM260.931 48.385C262.251 48.385 263.318 48.805 264.131 49.645C264.945 50.4717 265.351 51.6317 265.351 53.125V59.625H262.551V53.505C262.551 52.625 262.331 51.9517 261.891 51.485C261.451 51.005 260.851 50.765 260.091 50.765C259.318 50.765 258.705 51.005 258.251 51.485C257.811 51.9517 257.591 52.625 257.591 53.505V59.625H254.791V48.545H257.591V49.925C257.965 49.445 258.438 49.0717 259.011 48.805C259.598 48.525 260.238 48.385 260.931 48.385ZM271.962 48.365C272.788 48.365 273.515 48.5317 274.142 48.865C274.768 49.185 275.262 49.605 275.622 50.125V48.545H278.442V59.705C278.442 60.7317 278.235 61.645 277.822 62.445C277.408 63.2583 276.788 63.8983 275.962 64.365C275.135 64.845 274.135 65.085 272.962 65.085C271.388 65.085 270.095 64.7183 269.082 63.985C268.082 63.2517 267.515 62.2517 267.382 60.985H270.162C270.308 61.4917 270.622 61.8917 271.102 62.185C271.595 62.4917 272.188 62.645 272.882 62.645C273.695 62.645 274.355 62.3983 274.862 61.905C275.368 61.425 275.622 60.6917 275.622 59.705V57.985C275.262 58.505 274.762 58.9383 274.122 59.285C273.495 59.6317 272.775 59.805 271.962 59.805C271.028 59.805 270.175 59.565 269.402 59.085C268.628 58.605 268.015 57.9317 267.562 57.065C267.122 56.185 266.902 55.1783 266.902 54.045C266.902 52.925 267.122 51.9317 267.562 51.065C268.015 50.1983 268.622 49.5317 269.382 49.065C270.155 48.5983 271.015 48.365 271.962 48.365ZM275.622 54.085C275.622 53.405 275.488 52.825 275.222 52.345C274.955 51.8517 274.595 51.4783 274.142 51.225C273.688 50.9583 273.202 50.825 272.682 50.825C272.162 50.825 271.682 50.9517 271.242 51.205C270.802 51.4583 270.442 51.8317 270.162 52.325C269.895 52.805 269.762 53.3783 269.762 54.045C269.762 54.7117 269.895 55.2983 270.162 55.805C270.442 56.2983 270.802 56.6783 271.242 56.945C271.695 57.2117 272.175 57.345 272.682 57.345C273.202 57.345 273.688 57.2183 274.142 56.965C274.595 56.6983 274.955 56.325 275.222 55.845C275.488 55.3517 275.622 54.765 275.622 54.085Z" fill="#1A202A"/>
<path d="M57.0009 91.145H52.1369L51.2409 93.625H49.7049L53.7369 82.537H55.4169L59.4329 93.625H57.8969L57.0009 91.145ZM56.5849 89.961L54.5689 84.329L52.5529 89.961H56.5849ZM60.254 89.225C60.254 88.3183 60.4354 87.529 60.798 86.857C61.1607 86.1743 61.662 85.6463 62.302 85.273C62.9527 84.8997 63.694 84.713 64.526 84.713C65.6034 84.713 66.4887 84.9743 67.182 85.497C67.886 86.0197 68.35 86.745 68.574 87.673H67.006C66.8567 87.1397 66.5634 86.7183 66.126 86.409C65.6994 86.0997 65.166 85.945 64.526 85.945C63.694 85.945 63.022 86.233 62.51 86.809C61.998 87.3743 61.742 88.1797 61.742 89.225C61.742 90.281 61.998 91.097 62.51 91.673C63.022 92.249 63.694 92.537 64.526 92.537C65.166 92.537 65.6994 92.3877 66.126 92.089C66.5527 91.7903 66.846 91.3637 67.006 90.809H68.574C68.3394 91.705 67.87 92.425 67.166 92.969C66.462 93.5023 65.582 93.769 64.526 93.769C63.694 93.769 62.9527 93.5823 62.302 93.209C61.662 92.8357 61.1607 92.3077 60.798 91.625C60.4354 90.9423 60.254 90.1423 60.254 89.225ZM71.9006 86.057V91.225C71.9006 91.6517 71.9913 91.9557 72.1726 92.137C72.354 92.3077 72.6686 92.393 73.1166 92.393H74.1886V93.625H72.8766C72.066 93.625 71.458 93.4383 71.0526 93.065C70.6473 92.6917 70.4446 92.0783 70.4446 91.225V86.057H69.3086V84.857H70.4446V82.649H71.9006V84.857H74.1886V86.057H71.9006ZM76.3126 83.433C76.0353 83.433 75.8006 83.337 75.6086 83.145C75.4166 82.953 75.3206 82.7183 75.3206 82.441C75.3206 82.1637 75.4166 81.929 75.6086 81.737C75.8006 81.545 76.0353 81.449 76.3126 81.449C76.5793 81.449 76.8033 81.545 76.9846 81.737C77.1766 81.929 77.2726 82.1637 77.2726 82.441C77.2726 82.7183 77.1766 82.953 76.9846 83.145C76.8033 83.337 76.5793 83.433 76.3126 83.433ZM77.0166 84.857V93.625H75.5606V84.857H77.0166ZM82.3699 92.281L85.0899 84.857H86.6419L83.2019 93.625H81.5059L78.0659 84.857H79.6339L82.3699 92.281ZM87.1385 89.209C87.1385 88.313 87.3199 87.529 87.6825 86.857C88.0452 86.1743 88.5412 85.6463 89.1705 85.273C89.8105 84.8997 90.5199 84.713 91.2985 84.713C92.0665 84.713 92.7332 84.8783 93.2985 85.209C93.8639 85.5397 94.2852 85.9557 94.5625 86.457V84.857H96.0345V93.625H94.5625V91.993C94.2745 92.505 93.8425 92.9317 93.2665 93.273C92.7012 93.6037 92.0399 93.769 91.2825 93.769C90.5039 93.769 89.7999 93.577 89.1705 93.193C88.5412 92.809 88.0452 92.2703 87.6825 91.577C87.3199 90.8837 87.1385 90.0943 87.1385 89.209ZM94.5625 89.225C94.5625 88.5637 94.4292 87.9877 94.1625 87.497C93.8959 87.0063 93.5332 86.633 93.0745 86.377C92.6265 86.1103 92.1305 85.977 91.5865 85.977C91.0425 85.977 90.5465 86.105 90.0985 86.361C89.6505 86.617 89.2932 86.9903 89.0265 87.481C88.7599 87.9717 88.6265 88.5477 88.6265 89.209C88.6265 89.881 88.7599 90.4677 89.0265 90.969C89.2932 91.4597 89.6505 91.8383 90.0985 92.105C90.5465 92.361 91.0425 92.489 91.5865 92.489C92.1305 92.489 92.6265 92.361 93.0745 92.105C93.5332 91.8383 93.8959 91.4597 94.1625 90.969C94.4292 90.4677 94.5625 89.8863 94.5625 89.225ZM99.8789 86.057V91.225C99.8789 91.6517 99.9695 91.9557 100.151 92.137C100.332 92.3077 100.647 92.393 101.095 92.393H102.167V93.625H100.855C100.044 93.625 99.4362 93.4383 99.0309 93.065C98.6255 92.6917 98.4229 92.0783 98.4229 91.225V86.057H97.2869V84.857H98.4229V82.649H99.8789V84.857H102.167V86.057H99.8789ZM111.539 88.905C111.539 89.1823 111.523 89.4757 111.491 89.785H104.483C104.536 90.649 104.83 91.3263 105.363 91.817C105.907 92.297 106.563 92.537 107.331 92.537C107.96 92.537 108.483 92.393 108.899 92.105C109.326 91.8063 109.624 91.4117 109.795 90.921H111.363C111.128 91.7637 110.659 92.4517 109.955 92.985C109.251 93.5077 108.376 93.769 107.331 93.769C106.499 93.769 105.752 93.5823 105.091 93.209C104.44 92.8357 103.928 92.3077 103.555 91.625C103.182 90.9317 102.995 90.1317 102.995 89.225C102.995 88.3183 103.176 87.5237 103.539 86.841C103.902 86.1583 104.408 85.6357 105.059 85.273C105.72 84.8997 106.478 84.713 107.331 84.713C108.163 84.713 108.899 84.8943 109.539 85.257C110.179 85.6197 110.67 86.121 111.011 86.761C111.363 87.3903 111.539 88.105 111.539 88.905ZM110.035 88.601C110.035 88.0463 109.912 87.5717 109.667 87.177C109.422 86.7717 109.086 86.4677 108.659 86.265C108.243 86.0517 107.779 85.945 107.267 85.945C106.531 85.945 105.902 86.1797 105.379 86.649C104.867 87.1183 104.574 87.769 104.499 88.601H110.035ZM116.398 89.209C116.398 88.313 116.579 87.529 116.942 86.857C117.305 86.1743 117.801 85.6463 118.43 85.273C119.07 84.8997 119.779 84.713 120.558 84.713C121.326 84.713 121.993 84.8783 122.558 85.209C123.123 85.5397 123.545 85.9557 123.822 86.457V84.857H125.294V93.625H123.822V91.993C123.534 92.505 123.102 92.9317 122.526 93.273C121.961 93.6037 121.299 93.769 120.542 93.769C119.763 93.769 119.059 93.577 118.43 93.193C117.801 92.809 117.305 92.2703 116.942 91.577C116.579 90.8837 116.398 90.0943 116.398 89.209ZM123.822 89.225C123.822 88.5637 123.689 87.9877 123.422 87.497C123.155 87.0063 122.793 86.633 122.334 86.377C121.886 86.1103 121.39 85.977 120.846 85.977C120.302 85.977 119.806 86.105 119.358 86.361C118.91 86.617 118.553 86.9903 118.286 87.481C118.019 87.9717 117.886 88.5477 117.886 89.209C117.886 89.881 118.019 90.4677 118.286 90.969C118.553 91.4597 118.91 91.8383 119.358 92.105C119.806 92.361 120.302 92.489 120.846 92.489C121.39 92.489 121.886 92.361 122.334 92.105C122.793 91.8383 123.155 91.4597 123.422 90.969C123.689 90.4677 123.822 89.8863 123.822 89.225ZM126.818 89.209C126.818 88.313 127 87.529 127.362 86.857C127.725 86.1743 128.221 85.6463 128.85 85.273C129.49 84.8997 130.205 84.713 130.994 84.713C131.677 84.713 132.312 84.873 132.898 85.193C133.485 85.5023 133.933 85.913 134.242 86.425V81.785H135.714V93.625H134.242V91.977C133.954 92.4997 133.528 92.9317 132.962 93.273C132.397 93.6037 131.736 93.769 130.978 93.769C130.2 93.769 129.49 93.577 128.85 93.193C128.221 92.809 127.725 92.2703 127.362 91.577C127 90.8837 126.818 90.0943 126.818 89.209ZM134.242 89.225C134.242 88.5637 134.109 87.9877 133.842 87.497C133.576 87.0063 133.213 86.633 132.754 86.377C132.306 86.1103 131.81 85.977 131.266 85.977C130.722 85.977 130.226 86.105 129.778 86.361C129.33 86.617 128.973 86.9903 128.706 87.481C128.44 87.9717 128.306 88.5477 128.306 89.209C128.306 89.881 128.44 90.4677 128.706 90.969C128.973 91.4597 129.33 91.8383 129.778 92.105C130.226 92.361 130.722 92.489 131.266 92.489C131.81 92.489 132.306 92.361 132.754 92.105C133.213 91.8383 133.576 91.4597 133.842 90.969C134.109 90.4677 134.242 89.8863 134.242 89.225ZM140.887 93.769C140.215 93.769 139.612 93.657 139.079 93.433C138.545 93.1983 138.124 92.8783 137.815 92.473C137.505 92.057 137.335 91.5823 137.303 91.049H138.807C138.849 91.4863 139.052 91.8437 139.415 92.121C139.788 92.3983 140.273 92.537 140.871 92.537C141.425 92.537 141.863 92.4143 142.183 92.169C142.503 91.9237 142.663 91.6143 142.663 91.241C142.663 90.857 142.492 90.5743 142.151 90.393C141.809 90.201 141.281 90.0143 140.567 89.833C139.916 89.6623 139.383 89.4917 138.967 89.321C138.561 89.1397 138.209 88.8783 137.911 88.537C137.623 88.185 137.479 87.7263 137.479 87.161C137.479 86.713 137.612 86.3023 137.879 85.929C138.145 85.5557 138.524 85.2623 139.015 85.049C139.505 84.825 140.065 84.713 140.695 84.713C141.665 84.713 142.449 84.9583 143.047 85.449C143.644 85.9397 143.964 86.6117 144.007 87.465H142.551C142.519 87.0063 142.332 86.6383 141.991 86.361C141.66 86.0837 141.212 85.945 140.647 85.945C140.124 85.945 139.708 86.057 139.399 86.281C139.089 86.505 138.935 86.7983 138.935 87.161C138.935 87.449 139.025 87.689 139.207 87.881C139.399 88.0623 139.633 88.2117 139.911 88.329C140.199 88.4357 140.593 88.5583 141.095 88.697C141.724 88.8677 142.236 89.0383 142.631 89.209C143.025 89.369 143.361 89.6143 143.639 89.945C143.927 90.2757 144.076 90.7077 144.087 91.241C144.087 91.721 143.953 92.153 143.687 92.537C143.42 92.921 143.041 93.225 142.551 93.449C142.071 93.6623 141.516 93.769 140.887 93.769ZM149.079 89.209C149.079 88.313 149.261 87.529 149.623 86.857C149.986 86.1743 150.482 85.6463 151.111 85.273C151.751 84.8997 152.461 84.713 153.239 84.713C154.007 84.713 154.674 84.8783 155.239 85.209C155.805 85.5397 156.226 85.9557 156.503 86.457V84.857H157.975V93.625H156.503V91.993C156.215 92.505 155.783 92.9317 155.207 93.273C154.642 93.6037 153.981 93.769 153.223 93.769C152.445 93.769 151.741 93.577 151.111 93.193C150.482 92.809 149.986 92.2703 149.623 91.577C149.261 90.8837 149.079 90.0943 149.079 89.209ZM156.503 89.225C156.503 88.5637 156.37 87.9877 156.103 87.497C155.837 87.0063 155.474 86.633 155.015 86.377C154.567 86.1103 154.071 85.977 153.527 85.977C152.983 85.977 152.487 86.105 152.039 86.361C151.591 86.617 151.234 86.9903 150.967 87.481C150.701 87.9717 150.567 88.5477 150.567 89.209C150.567 89.881 150.701 90.4677 150.967 90.969C151.234 91.4597 151.591 91.8383 152.039 92.105C152.487 92.361 152.983 92.489 153.527 92.489C154.071 92.489 154.567 92.361 155.015 92.105C155.474 91.8383 155.837 91.4597 156.103 90.969C156.37 90.4677 156.503 89.8863 156.503 89.225ZM161.82 86.057V91.225C161.82 91.6517 161.91 91.9557 162.092 92.137C162.273 92.3077 162.588 92.393 163.036 92.393H164.108V93.625H162.796C161.985 93.625 161.377 93.4383 160.972 93.065C160.566 92.6917 160.364 92.0783 160.364 91.225V86.057H159.228V84.857H160.364V82.649H161.82V84.857H164.108V86.057H161.82ZM174.249 93.625L170.809 89.753V93.625H169.353V81.785H170.809V88.745L174.185 84.857H176.217L172.089 89.225L176.233 93.625H174.249ZM185.195 88.905C185.195 89.1823 185.179 89.4757 185.147 89.785H178.139C178.193 90.649 178.486 91.3263 179.019 91.817C179.563 92.297 180.219 92.537 180.987 92.537C181.617 92.537 182.139 92.393 182.555 92.105C182.982 91.8063 183.281 91.4117 183.451 90.921H185.019C184.785 91.7637 184.315 92.4517 183.611 92.985C182.907 93.5077 182.033 93.769 180.987 93.769C180.155 93.769 179.409 93.5823 178.747 93.209C178.097 92.8357 177.585 92.3077 177.211 91.625C176.838 90.9317 176.651 90.1317 176.651 89.225C176.651 88.3183 176.833 87.5237 177.195 86.841C177.558 86.1583 178.065 85.6357 178.715 85.273C179.377 84.8997 180.134 84.713 180.987 84.713C181.819 84.713 182.555 84.8943 183.195 85.257C183.835 85.6197 184.326 86.121 184.667 86.761C185.019 87.3903 185.195 88.105 185.195 88.905ZM183.691 88.601C183.691 88.0463 183.569 87.5717 183.323 87.177C183.078 86.7717 182.742 86.4677 182.315 86.265C181.899 86.0517 181.435 85.945 180.923 85.945C180.187 85.945 179.558 86.1797 179.035 86.649C178.523 87.1183 178.23 87.769 178.155 88.601H183.691ZM194.277 84.857L188.997 97.753H187.493L189.221 93.529L185.685 84.857H187.301L190.053 91.961L192.773 84.857H194.277ZM200.006 83.433C199.729 83.433 199.494 83.337 199.302 83.145C199.121 82.953 199.03 82.7183 199.03 82.441C199.03 82.1637 199.121 81.929 199.302 81.737C199.494 81.545 199.729 81.449 200.006 81.449C200.283 81.449 200.513 81.545 200.694 81.737C200.886 81.929 200.982 82.1637 200.982 82.441C200.982 82.7183 200.886 82.953 200.694 83.145C200.513 83.337 200.283 83.433 200.006 83.433ZM200.726 95.529C200.726 96.3077 200.529 96.8783 200.134 97.241C199.739 97.6037 199.163 97.785 198.406 97.785H197.558V96.553H198.166C198.571 96.553 198.854 96.473 199.014 96.313C199.185 96.153 199.27 95.881 199.27 95.497V84.857H200.726V95.529ZM206.623 93.769C205.801 93.769 205.055 93.5823 204.383 93.209C203.721 92.8357 203.199 92.3077 202.815 91.625C202.441 90.9317 202.255 90.1317 202.255 89.225C202.255 88.329 202.447 87.5397 202.831 86.857C203.225 86.1637 203.759 85.6357 204.431 85.273C205.103 84.8997 205.855 84.713 206.687 84.713C207.519 84.713 208.271 84.8997 208.943 85.273C209.615 85.6357 210.143 86.1583 210.527 86.841C210.921 87.5237 211.119 88.3183 211.119 89.225C211.119 90.1317 210.916 90.9317 210.511 91.625C210.116 92.3077 209.577 92.8357 208.895 93.209C208.212 93.5823 207.455 93.769 206.623 93.769ZM206.623 92.489C207.145 92.489 207.636 92.3663 208.095 92.121C208.553 91.8757 208.921 91.5077 209.199 91.017C209.487 90.5263 209.631 89.929 209.631 89.225C209.631 88.521 209.492 87.9237 209.215 87.433C208.937 86.9423 208.575 86.5797 208.127 86.345C207.679 86.0997 207.193 85.977 206.671 85.977C206.137 85.977 205.647 86.0997 205.199 86.345C204.761 86.5797 204.409 86.9423 204.143 87.433C203.876 87.9237 203.743 88.521 203.743 89.225C203.743 89.9397 203.871 90.5423 204.127 91.033C204.393 91.5237 204.745 91.8917 205.183 92.137C205.62 92.3717 206.1 92.489 206.623 92.489ZM220.417 84.857V93.625H218.961V92.329C218.684 92.777 218.294 93.129 217.793 93.385C217.302 93.6303 216.758 93.753 216.161 93.753C215.478 93.753 214.865 93.6143 214.321 93.337C213.777 93.049 213.345 92.6223 213.025 92.057C212.716 91.4917 212.561 90.8037 212.561 89.993V84.857H214.001V89.801C214.001 90.665 214.22 91.3317 214.657 91.801C215.094 92.2597 215.692 92.489 216.449 92.489C217.228 92.489 217.841 92.249 218.289 91.769C218.737 91.289 218.961 90.5903 218.961 89.673V84.857H220.417ZM223.939 86.281C224.195 85.7797 224.558 85.3903 225.027 85.113C225.507 84.8357 226.088 84.697 226.771 84.697V86.201H226.387C224.755 86.201 223.939 87.0863 223.939 88.857V93.625H222.483V84.857H223.939V86.281ZM232.332 84.697C233.398 84.697 234.262 85.0223 234.924 85.673C235.585 86.313 235.916 87.241 235.916 88.457V93.625H234.476V88.665C234.476 87.7903 234.257 87.1237 233.82 86.665C233.382 86.1957 232.785 85.961 232.028 85.961C231.26 85.961 230.646 86.201 230.188 86.681C229.74 87.161 229.516 87.8597 229.516 88.777V93.625H228.06V84.857H229.516V86.105C229.804 85.657 230.193 85.3103 230.684 85.065C231.185 84.8197 231.734 84.697 232.332 84.697ZM245.902 88.905C245.902 89.1823 245.886 89.4757 245.854 89.785H238.846C238.899 90.649 239.193 91.3263 239.726 91.817C240.27 92.297 240.926 92.537 241.694 92.537C242.323 92.537 242.846 92.393 243.262 92.105C243.689 91.8063 243.987 91.4117 244.158 90.921H245.726C245.491 91.7637 245.022 92.4517 244.318 92.985C243.614 93.5077 242.739 93.769 241.694 93.769C240.862 93.769 240.115 93.5823 239.454 93.209C238.803 92.8357 238.291 92.3077 237.918 91.625C237.545 90.9317 237.358 90.1317 237.358 89.225C237.358 88.3183 237.539 87.5237 237.902 86.841C238.265 86.1583 238.771 85.6357 239.422 85.273C240.083 84.8997 240.841 84.713 241.694 84.713C242.526 84.713 243.262 84.8943 243.902 85.257C244.542 85.6197 245.033 86.121 245.374 86.761C245.726 87.3903 245.902 88.105 245.902 88.905ZM244.398 88.601C244.398 88.0463 244.275 87.5717 244.03 87.177C243.785 86.7717 243.449 86.4677 243.022 86.265C242.606 86.0517 242.142 85.945 241.63 85.945C240.894 85.945 240.265 86.1797 239.742 86.649C239.23 87.1183 238.937 87.769 238.862 88.601H244.398ZM254.984 84.857L249.704 97.753H248.2L249.928 93.529L246.392 84.857H248.008L250.76 91.961L253.48 84.857H254.984ZM56.7498 108.697C57.4325 108.697 58.0405 108.841 58.5738 109.129C59.1071 109.406 59.5285 109.828 59.8378 110.393C60.1471 110.958 60.3018 111.646 60.3018 112.457V117.625H58.8618V112.665C58.8618 111.79 58.6431 111.124 58.2058 110.665C57.7791 110.196 57.1978 109.961 56.4618 109.961C55.7045 109.961 55.1018 110.206 54.6538 110.697C54.2058 111.177 53.9818 111.876 53.9818 112.793V117.625H52.5418V112.665C52.5418 111.79 52.3231 111.124 51.8858 110.665C51.4591 110.196 50.8778 109.961 50.1418 109.961C49.3845 109.961 48.7818 110.206 48.3338 110.697C47.8858 111.177 47.6618 111.876 47.6618 112.793V117.625H46.2058V108.857H47.6618V110.121C47.9498 109.662 48.3338 109.31 48.8138 109.065C49.3045 108.82 49.8431 108.697 50.4298 108.697C51.1658 108.697 51.8165 108.862 52.3818 109.193C52.9471 109.524 53.3685 110.009 53.6458 110.649C53.8911 110.03 54.2965 109.55 54.8618 109.209C55.4271 108.868 56.0565 108.697 56.7498 108.697ZM66.122 117.769C65.3007 117.769 64.554 117.582 63.882 117.209C63.2207 116.836 62.698 116.308 62.314 115.625C61.9407 114.932 61.754 114.132 61.754 113.225C61.754 112.329 61.946 111.54 62.33 110.857C62.7247 110.164 63.258 109.636 63.93 109.273C64.602 108.9 65.354 108.713 66.186 108.713C67.018 108.713 67.77 108.9 68.442 109.273C69.114 109.636 69.642 110.158 70.026 110.841C70.4207 111.524 70.618 112.318 70.618 113.225C70.618 114.132 70.4154 114.932 70.01 115.625C69.6154 116.308 69.0767 116.836 68.394 117.209C67.7114 117.582 66.954 117.769 66.122 117.769ZM66.122 116.489C66.6447 116.489 67.1354 116.366 67.594 116.121C68.0527 115.876 68.4207 115.508 68.698 115.017C68.986 114.526 69.13 113.929 69.13 113.225C69.13 112.521 68.9914 111.924 68.714 111.433C68.4367 110.942 68.074 110.58 67.626 110.345C67.178 110.1 66.6927 109.977 66.17 109.977C65.6367 109.977 65.146 110.1 64.698 110.345C64.2607 110.58 63.9087 110.942 63.642 111.433C63.3754 111.924 63.242 112.521 63.242 113.225C63.242 113.94 63.37 114.542 63.626 115.033C63.8927 115.524 64.2447 115.892 64.682 116.137C65.1194 116.372 65.5994 116.489 66.122 116.489ZM82.6842 108.697C83.3669 108.697 83.9749 108.841 84.5082 109.129C85.0416 109.406 85.4629 109.828 85.7722 110.393C86.0816 110.958 86.2362 111.646 86.2362 112.457V117.625H84.7962V112.665C84.7962 111.79 84.5776 111.124 84.1402 110.665C83.7136 110.196 83.1322 109.961 82.3962 109.961C81.6389 109.961 81.0362 110.206 80.5882 110.697C80.1402 111.177 79.9162 111.876 79.9162 112.793V117.625H78.4762V112.665C78.4762 111.79 78.2576 111.124 77.8202 110.665C77.3936 110.196 76.8122 109.961 76.0762 109.961C75.3189 109.961 74.7162 110.206 74.2682 110.697C73.8202 111.177 73.5962 111.876 73.5962 112.793V117.625H72.1402V108.857H73.5962V110.121C73.8842 109.662 74.2682 109.31 74.7482 109.065C75.2389 108.82 75.7776 108.697 76.3642 108.697C77.1002 108.697 77.7509 108.862 78.3162 109.193C78.8816 109.524 79.3029 110.009 79.5802 110.649C79.8256 110.03 80.2309 109.55 80.7962 109.209C81.3616 108.868 81.9909 108.697 82.6842 108.697ZM96.2325 112.905C96.2325 113.182 96.2165 113.476 96.1845 113.785H89.1765C89.2298 114.649 89.5231 115.326 90.0565 115.817C90.6005 116.297 91.2565 116.537 92.0245 116.537C92.6538 116.537 93.1765 116.393 93.5925 116.105C94.0191 115.806 94.3178 115.412 94.4885 114.921H96.0565C95.8218 115.764 95.3525 116.452 94.6485 116.985C93.9445 117.508 93.0698 117.769 92.0245 117.769C91.1925 117.769 90.4458 117.582 89.7845 117.209C89.1338 116.836 88.6218 116.308 88.2485 115.625C87.8751 114.932 87.6885 114.132 87.6885 113.225C87.6885 112.318 87.8698 111.524 88.2325 110.841C88.5951 110.158 89.1018 109.636 89.7525 109.273C90.4138 108.9 91.1711 108.713 92.0245 108.713C92.8565 108.713 93.5925 108.894 94.2325 109.257C94.8725 109.62 95.3631 110.121 95.7045 110.761C96.0565 111.39 96.2325 112.105 96.2325 112.905ZM94.7285 112.601C94.7285 112.046 94.6058 111.572 94.3605 111.177C94.1151 110.772 93.7791 110.468 93.3525 110.265C92.9365 110.052 92.4725 109.945 91.9605 109.945C91.2245 109.945 90.5951 110.18 90.0725 110.649C89.5605 111.118 89.2671 111.769 89.1925 112.601H94.7285ZM102.034 108.697C103.101 108.697 103.965 109.022 104.626 109.673C105.288 110.313 105.618 111.241 105.618 112.457V117.625H104.178V112.665C104.178 111.79 103.96 111.124 103.522 110.665C103.085 110.196 102.488 109.961 101.73 109.961C100.962 109.961 100.349 110.201 99.8902 110.681C99.4422 111.161 99.2182 111.86 99.2182 112.777V117.625H97.7622V108.857H99.2182V110.105C99.5062 109.657 99.8955 109.31 100.386 109.065C100.888 108.82 101.437 108.697 102.034 108.697ZM109.38 110.057V115.225C109.38 115.652 109.471 115.956 109.652 116.137C109.834 116.308 110.148 116.393 110.596 116.393H111.668V117.625H110.356C109.546 117.625 108.938 117.438 108.532 117.065C108.127 116.692 107.924 116.078 107.924 115.225V110.057H106.788V108.857H107.924V106.649H109.38V108.857H111.668V110.057H109.38ZM116.144 117.769C115.472 117.769 114.87 117.657 114.336 117.433C113.803 117.198 113.382 116.878 113.072 116.473C112.763 116.057 112.592 115.582 112.56 115.049H114.064C114.107 115.486 114.31 115.844 114.672 116.121C115.046 116.398 115.531 116.537 116.128 116.537C116.683 116.537 117.12 116.414 117.44 116.169C117.76 115.924 117.92 115.614 117.92 115.241C117.92 114.857 117.75 114.574 117.408 114.393C117.067 114.201 116.539 114.014 115.824 113.833C115.174 113.662 114.64 113.492 114.224 113.321C113.819 113.14 113.467 112.878 113.168 112.537C112.88 112.185 112.736 111.726 112.736 111.161C112.736 110.713 112.87 110.302 113.136 109.929C113.403 109.556 113.782 109.262 114.272 109.049C114.763 108.825 115.323 108.713 115.952 108.713C116.923 108.713 117.707 108.958 118.304 109.449C118.902 109.94 119.222 110.612 119.264 111.465H117.808C117.776 111.006 117.59 110.638 117.248 110.361C116.918 110.084 116.47 109.945 115.904 109.945C115.382 109.945 114.966 110.057 114.656 110.281C114.347 110.505 114.192 110.798 114.192 111.161C114.192 111.449 114.283 111.689 114.464 111.881C114.656 112.062 114.891 112.212 115.168 112.329C115.456 112.436 115.851 112.558 116.352 112.697C116.982 112.868 117.494 113.038 117.888 113.209C118.283 113.369 118.619 113.614 118.896 113.945C119.184 114.276 119.334 114.708 119.344 115.241C119.344 115.721 119.211 116.153 118.944 116.537C118.678 116.921 118.299 117.225 117.808 117.449C117.328 117.662 116.774 117.769 116.144 117.769ZM132.72 111.145V112.377H120.992V111.145H132.72ZM136.548 110.057V115.225C136.548 115.652 136.638 115.956 136.82 116.137C137.001 116.308 137.316 116.393 137.764 116.393H138.836V117.625H137.524C136.713 117.625 136.105 117.438 135.7 117.065C135.294 116.692 135.092 116.078 135.092 115.225V110.057H133.956V108.857H135.092V106.649H136.548V108.857H138.836V110.057H136.548ZM141.664 110.281C141.92 109.78 142.282 109.39 142.752 109.113C143.232 108.836 143.813 108.697 144.496 108.697V110.201H144.112C142.48 110.201 141.664 111.086 141.664 112.857V117.625H140.208V108.857H141.664V110.281ZM146.536 107.433C146.259 107.433 146.024 107.337 145.832 107.145C145.64 106.953 145.544 106.718 145.544 106.441C145.544 106.164 145.64 105.929 145.832 105.737C146.024 105.545 146.259 105.449 146.536 105.449C146.803 105.449 147.027 105.545 147.208 105.737C147.4 105.929 147.496 106.164 147.496 106.441C147.496 106.718 147.4 106.953 147.208 107.145C147.027 107.337 146.803 107.433 146.536 107.433ZM147.24 108.857V117.625H145.784V108.857H147.24ZM150.786 110.473C151.074 109.972 151.5 109.556 152.066 109.225C152.642 108.884 153.308 108.713 154.066 108.713C154.844 108.713 155.548 108.9 156.178 109.273C156.818 109.646 157.319 110.174 157.682 110.857C158.044 111.529 158.226 112.313 158.226 113.209C158.226 114.094 158.044 114.884 157.682 115.577C157.319 116.27 156.818 116.809 156.178 117.193C155.548 117.577 154.844 117.769 154.066 117.769C153.319 117.769 152.658 117.604 152.082 117.273C151.516 116.932 151.084 116.51 150.786 116.009V121.785H149.33V108.857H150.786V110.473ZM156.738 113.209C156.738 112.548 156.604 111.972 156.338 111.481C156.071 110.99 155.708 110.617 155.25 110.361C154.802 110.105 154.306 109.977 153.762 109.977C153.228 109.977 152.732 110.11 152.274 110.377C151.826 110.633 151.463 111.012 151.186 111.513C150.919 112.004 150.786 112.574 150.786 113.225C150.786 113.886 150.919 114.468 151.186 114.969C151.463 115.46 151.826 115.838 152.274 116.105C152.732 116.361 153.228 116.489 153.762 116.489C154.306 116.489 154.802 116.361 155.25 116.105C155.708 115.838 156.071 115.46 156.338 114.969C156.604 114.468 156.738 113.881 156.738 113.209ZM166.727 117.769C166.055 117.769 165.453 117.657 164.919 117.433C164.386 117.198 163.965 116.878 163.655 116.473C163.346 116.057 163.175 115.582 163.143 115.049H164.647C164.69 115.486 164.893 115.844 165.255 116.121C165.629 116.398 166.114 116.537 166.711 116.537C167.266 116.537 167.703 116.414 168.023 116.169C168.343 115.924 168.503 115.614 168.503 115.241C168.503 114.857 168.333 114.574 167.991 114.393C167.65 114.201 167.122 114.014 166.407 113.833C165.757 113.662 165.223 113.492 164.807 113.321C164.402 113.14 164.05 112.878 163.751 112.537C163.463 112.185 163.319 111.726 163.319 111.161C163.319 110.713 163.453 110.302 163.719 109.929C163.986 109.556 164.365 109.262 164.855 109.049C165.346 108.825 165.906 108.713 166.535 108.713C167.506 108.713 168.29 108.958 168.887 109.449C169.485 109.94 169.805 110.612 169.847 111.465H168.391C168.359 111.006 168.173 110.638 167.831 110.361C167.501 110.084 167.053 109.945 166.487 109.945C165.965 109.945 165.549 110.057 165.239 110.281C164.93 110.505 164.775 110.798 164.775 111.161C164.775 111.449 164.866 111.689 165.047 111.881C165.239 112.062 165.474 112.212 165.751 112.329C166.039 112.436 166.434 112.558 166.935 112.697C167.565 112.868 168.077 113.038 168.471 113.209C168.866 113.369 169.202 113.614 169.479 113.945C169.767 114.276 169.917 114.708 169.927 115.241C169.927 115.721 169.794 116.153 169.527 116.537C169.261 116.921 168.882 117.225 168.391 117.449C167.911 117.662 167.357 117.769 166.727 117.769ZM173.367 110.057V115.225C173.367 115.652 173.457 115.956 173.639 116.137C173.82 116.308 174.135 116.393 174.583 116.393H175.655V117.625H174.343C173.532 117.625 172.924 117.438 172.519 117.065C172.113 116.692 171.911 116.078 171.911 115.225V110.057H170.775V108.857H171.911V106.649H173.367V108.857H175.655V110.057H173.367ZM176.483 113.209C176.483 112.313 176.664 111.529 177.027 110.857C177.389 110.174 177.885 109.646 178.515 109.273C179.155 108.9 179.864 108.713 180.643 108.713C181.411 108.713 182.077 108.878 182.643 109.209C183.208 109.54 183.629 109.956 183.907 110.457V108.857H185.379V117.625H183.907V115.993C183.619 116.505 183.187 116.932 182.611 117.273C182.045 117.604 181.384 117.769 180.627 117.769C179.848 117.769 179.144 117.577 178.515 117.193C177.885 116.809 177.389 116.27 177.027 115.577C176.664 114.884 176.483 114.094 176.483 113.209ZM183.907 113.225C183.907 112.564 183.773 111.988 183.507 111.497C183.24 111.006 182.877 110.633 182.419 110.377C181.971 110.11 181.475 109.977 180.931 109.977C180.387 109.977 179.891 110.105 179.443 110.361C178.995 110.617 178.637 110.99 178.371 111.481C178.104 111.972 177.971 112.548 177.971 113.209C177.971 113.881 178.104 114.468 178.371 114.969C178.637 115.46 178.995 115.838 179.443 116.105C179.891 116.361 180.387 116.489 180.931 116.489C181.475 116.489 181.971 116.361 182.419 116.105C182.877 115.838 183.24 115.46 183.507 114.969C183.773 114.468 183.907 113.886 183.907 113.225ZM188.903 110.281C189.159 109.78 189.522 109.39 189.991 109.113C190.471 108.836 191.052 108.697 191.735 108.697V110.201H191.351C189.719 110.201 188.903 111.086 188.903 112.857V117.625H187.447V108.857H188.903V110.281ZM194.8 110.057V115.225C194.8 115.652 194.89 115.956 195.072 116.137C195.253 116.308 195.568 116.393 196.016 116.393H197.088V117.625H195.776C194.965 117.625 194.357 117.438 193.952 117.065C193.546 116.692 193.344 116.078 193.344 115.225V110.057H192.208V108.857H193.344V106.649H194.8V108.857H197.088V110.057H194.8ZM199.963 115.609L198.171 119.913H197.195L198.363 115.609H199.963ZM206.569 110.281C206.825 109.78 207.187 109.39 207.657 109.113C208.137 108.836 208.718 108.697 209.401 108.697V110.201H209.017C207.385 110.201 206.569 111.086 206.569 112.857V117.625H205.113V108.857H206.569V110.281ZM211.441 107.433C211.164 107.433 210.929 107.337 210.737 107.145C210.545 106.953 210.449 106.718 210.449 106.441C210.449 106.164 210.545 105.929 210.737 105.737C210.929 105.545 211.164 105.449 211.441 105.449C211.708 105.449 211.932 105.545 212.113 105.737C212.305 105.929 212.401 106.164 212.401 106.441C212.401 106.718 212.305 106.953 212.113 107.145C211.932 107.337 211.708 107.433 211.441 107.433ZM212.145 108.857V117.625H210.689V108.857H212.145ZM213.691 113.209C213.691 112.313 213.872 111.529 214.235 110.857C214.597 110.174 215.093 109.646 215.723 109.273C216.363 108.9 217.077 108.713 217.867 108.713C218.549 108.713 219.184 108.873 219.771 109.193C220.357 109.502 220.805 109.913 221.115 110.425V105.785H222.587V117.625H221.115V115.977C220.827 116.5 220.4 116.932 219.835 117.273C219.269 117.604 218.608 117.769 217.851 117.769C217.072 117.769 216.363 117.577 215.723 117.193C215.093 116.809 214.597 116.27 214.235 115.577C213.872 114.884 213.691 114.094 213.691 113.209ZM221.115 113.225C221.115 112.564 220.981 111.988 220.715 111.497C220.448 111.006 220.085 110.633 219.627 110.377C219.179 110.11 218.683 109.977 218.139 109.977C217.595 109.977 217.099 110.105 216.651 110.361C216.203 110.617 215.845 110.99 215.579 111.481C215.312 111.972 215.179 112.548 215.179 113.209C215.179 113.881 215.312 114.468 215.579 114.969C215.845 115.46 216.203 115.838 216.651 116.105C217.099 116.361 217.595 116.489 218.139 116.489C218.683 116.489 219.179 116.361 219.627 116.105C220.085 115.838 220.448 115.46 220.715 114.969C220.981 114.468 221.115 113.886 221.115 113.225ZM232.655 112.905C232.655 113.182 232.639 113.476 232.607 113.785H225.599C225.652 114.649 225.946 115.326 226.479 115.817C227.023 116.297 227.679 116.537 228.447 116.537C229.076 116.537 229.599 116.393 230.015 116.105C230.442 115.806 230.74 115.412 230.911 114.921H232.479C232.244 115.764 231.775 116.452 231.071 116.985C230.367 117.508 229.492 117.769 228.447 117.769C227.615 117.769 226.868 117.582 226.207 117.209C225.556 116.836 225.044 116.308 224.671 115.625C224.298 114.932 224.111 114.132 224.111 113.225C224.111 112.318 224.292 111.524 224.655 110.841C225.018 110.158 225.524 109.636 226.175 109.273C226.836 108.9 227.594 108.713 228.447 108.713C229.279 108.713 230.015 108.894 230.655 109.257C231.295 109.62 231.786 110.121 232.127 110.761C232.479 111.39 232.655 112.105 232.655 112.905ZM231.151 112.601C231.151 112.046 231.028 111.572 230.783 111.177C230.538 110.772 230.202 110.468 229.775 110.265C229.359 110.052 228.895 109.945 228.383 109.945C227.647 109.945 227.018 110.18 226.495 110.649C225.983 111.118 225.69 111.769 225.615 112.601H231.151ZM238.81 107.433C238.533 107.433 238.298 107.337 238.106 107.145C237.914 106.953 237.818 106.718 237.818 106.441C237.818 106.164 237.914 105.929 238.106 105.737C238.298 105.545 238.533 105.449 238.81 105.449C239.077 105.449 239.301 105.545 239.482 105.737C239.674 105.929 239.77 106.164 239.77 106.441C239.77 106.718 239.674 106.953 239.482 107.145C239.301 107.337 239.077 107.433 238.81 107.433ZM239.514 108.857V117.625H238.058V108.857H239.514ZM245.875 108.697C246.942 108.697 247.806 109.022 248.467 109.673C249.129 110.313 249.459 111.241 249.459 112.457V117.625H248.019V112.665C248.019 111.79 247.801 111.124 247.363 110.665C246.926 110.196 246.329 109.961 245.571 109.961C244.803 109.961 244.19 110.201 243.731 110.681C243.283 111.161 243.059 111.86 243.059 112.777V117.625H241.603V108.857H243.059V110.105C243.347 109.657 243.737 109.31 244.227 109.065C244.729 108.82 245.278 108.697 245.875 108.697ZM257.526 111.145V112.377H251.142V111.145H257.526ZM74.251 134.473C74.539 133.972 74.9656 133.556 75.531 133.225C76.107 132.884 76.7736 132.713 77.531 132.713C78.3096 132.713 79.0136 132.9 79.643 133.273C80.283 133.646 80.7843 134.174 81.147 134.857C81.5096 135.529 81.691 136.313 81.691 137.209C81.691 138.094 81.5096 138.884 81.147 139.577C80.7843 140.27 80.283 140.809 79.643 141.193C79.0136 141.577 78.3096 141.769 77.531 141.769C76.7843 141.769 76.123 141.604 75.547 141.273C74.9816 140.932 74.5496 140.51 74.251 140.009V145.785H72.795V132.857H74.251V134.473ZM80.203 137.209C80.203 136.548 80.0696 135.972 79.803 135.481C79.5363 134.99 79.1736 134.617 78.715 134.361C78.267 134.105 77.771 133.977 77.227 133.977C76.6936 133.977 76.1976 134.11 75.739 134.377C75.291 134.633 74.9283 135.012 74.651 135.513C74.3843 136.004 74.251 136.574 74.251 137.225C74.251 137.886 74.3843 138.468 74.651 138.969C74.9283 139.46 75.291 139.838 75.739 140.105C76.1976 140.361 76.6936 140.489 77.227 140.489C77.771 140.489 78.267 140.361 78.715 140.105C79.1736 139.838 79.5363 139.46 79.803 138.969C80.0696 138.468 80.203 137.881 80.203 137.209ZM84.6713 134.281C84.9273 133.78 85.29 133.39 85.7593 133.113C86.2393 132.836 86.8206 132.697 87.5033 132.697V134.201H87.1193C85.4873 134.201 84.6713 135.086 84.6713 136.857V141.625H83.2153V132.857H84.6713V134.281ZM92.6159 141.769C91.7946 141.769 91.0479 141.582 90.3759 141.209C89.7146 140.836 89.1919 140.308 88.8079 139.625C88.4346 138.932 88.2479 138.132 88.2479 137.225C88.2479 136.329 88.4399 135.54 88.8239 134.857C89.2186 134.164 89.7519 133.636 90.4239 133.273C91.0959 132.9 91.8479 132.713 92.6799 132.713C93.5119 132.713 94.2639 132.9 94.9359 133.273C95.6079 133.636 96.1359 134.158 96.5199 134.841C96.9146 135.524 97.1119 136.318 97.1119 137.225C97.1119 138.132 96.9092 138.932 96.5039 139.625C96.1092 140.308 95.5706 140.836 94.8879 141.209C94.2052 141.582 93.4479 141.769 92.6159 141.769ZM92.6159 140.489C93.1386 140.489 93.6292 140.366 94.0879 140.121C94.5466 139.876 94.9146 139.508 95.1919 139.017C95.4799 138.526 95.6239 137.929 95.6239 137.225C95.6239 136.521 95.4852 135.924 95.2079 135.433C94.9306 134.942 94.5679 134.58 94.1199 134.345C93.6719 134.1 93.1866 133.977 92.6639 133.977C92.1306 133.977 91.6399 134.1 91.1919 134.345C90.7546 134.58 90.4026 134.942 90.1359 135.433C89.8692 135.924 89.7359 136.521 89.7359 137.225C89.7359 137.94 89.8639 138.542 90.1199 139.033C90.3866 139.524 90.7386 139.892 91.1759 140.137C91.6132 140.372 92.0932 140.489 92.6159 140.489ZM102.25 132.713C103.007 132.713 103.669 132.878 104.234 133.209C104.81 133.54 105.237 133.956 105.514 134.457V132.857H106.986V141.817C106.986 142.617 106.815 143.326 106.474 143.945C106.133 144.574 105.642 145.065 105.002 145.417C104.373 145.769 103.637 145.945 102.794 145.945C101.642 145.945 100.682 145.673 99.9141 145.129C99.1461 144.585 98.6928 143.844 98.5541 142.905H99.9941C100.154 143.438 100.485 143.865 100.986 144.185C101.487 144.516 102.09 144.681 102.794 144.681C103.594 144.681 104.245 144.43 104.746 143.929C105.258 143.428 105.514 142.724 105.514 141.817V139.977C105.226 140.489 104.799 140.916 104.234 141.257C103.669 141.598 103.007 141.769 102.25 141.769C101.471 141.769 100.762 141.577 100.122 141.193C99.4928 140.809 98.9968 140.27 98.6341 139.577C98.2714 138.884 98.0901 138.094 98.0901 137.209C98.0901 136.313 98.2714 135.529 98.6341 134.857C98.9968 134.174 99.4928 133.646 100.122 133.273C100.762 132.9 101.471 132.713 102.25 132.713ZM105.514 137.225C105.514 136.564 105.381 135.988 105.114 135.497C104.847 135.006 104.485 134.633 104.026 134.377C103.578 134.11 103.082 133.977 102.538 133.977C101.994 133.977 101.498 134.105 101.05 134.361C100.602 134.617 100.245 134.99 99.9781 135.481C99.7114 135.972 99.5781 136.548 99.5781 137.209C99.5781 137.881 99.7114 138.468 99.9781 138.969C100.245 139.46 100.602 139.838 101.05 140.105C101.498 140.361 101.994 140.489 102.538 140.489C103.082 140.489 103.578 140.361 104.026 140.105C104.485 139.838 104.847 139.46 105.114 138.969C105.381 138.468 105.514 137.886 105.514 137.225ZM110.51 134.281C110.766 133.78 111.129 133.39 111.598 133.113C112.078 132.836 112.66 132.697 113.342 132.697V134.201H112.958C111.326 134.201 110.51 135.086 110.51 136.857V141.625H109.054V132.857H110.51V134.281ZM122.631 136.905C122.631 137.182 122.615 137.476 122.583 137.785H115.575C115.628 138.649 115.922 139.326 116.455 139.817C116.999 140.297 117.655 140.537 118.423 140.537C119.052 140.537 119.575 140.393 119.991 140.105C120.418 139.806 120.716 139.412 120.887 138.921H122.455C122.22 139.764 121.751 140.452 121.047 140.985C120.343 141.508 119.468 141.769 118.423 141.769C117.591 141.769 116.844 141.582 116.183 141.209C115.532 140.836 115.02 140.308 114.647 139.625C114.274 138.932 114.087 138.132 114.087 137.225C114.087 136.318 114.268 135.524 114.631 134.841C114.994 134.158 115.5 133.636 116.151 133.273C116.812 132.9 117.57 132.713 118.423 132.713C119.255 132.713 119.991 132.894 120.631 133.257C121.271 133.62 121.762 134.121 122.103 134.761C122.455 135.39 122.631 136.105 122.631 136.905ZM121.127 136.601C121.127 136.046 121.004 135.572 120.759 135.177C120.514 134.772 120.178 134.468 119.751 134.265C119.335 134.052 118.871 133.945 118.359 133.945C117.623 133.945 116.994 134.18 116.471 134.649C115.959 135.118 115.666 135.769 115.591 136.601H121.127ZM127.265 141.769C126.593 141.769 125.99 141.657 125.457 141.433C124.923 141.198 124.502 140.878 124.193 140.473C123.883 140.057 123.713 139.582 123.681 139.049H125.185C125.227 139.486 125.43 139.844 125.793 140.121C126.166 140.398 126.651 140.537 127.249 140.537C127.803 140.537 128.241 140.414 128.561 140.169C128.881 139.924 129.041 139.614 129.041 139.241C129.041 138.857 128.87 138.574 128.529 138.393C128.187 138.201 127.659 138.014 126.945 137.833C126.294 137.662 125.761 137.492 125.345 137.321C124.939 137.14 124.587 136.878 124.289 136.537C124.001 136.185 123.857 135.726 123.857 135.161C123.857 134.713 123.99 134.302 124.257 133.929C124.523 133.556 124.902 133.262 125.393 133.049C125.883 132.825 126.443 132.713 127.073 132.713C128.043 132.713 128.827 132.958 129.425 133.449C130.022 133.94 130.342 134.612 130.385 135.465H128.929C128.897 135.006 128.71 134.638 128.369 134.361C128.038 134.084 127.59 133.945 127.025 133.945C126.502 133.945 126.086 134.057 125.777 134.281C125.467 134.505 125.313 134.798 125.313 135.161C125.313 135.449 125.403 135.689 125.585 135.881C125.777 136.062 126.011 136.212 126.289 136.329C126.577 136.436 126.971 136.558 127.473 136.697C128.102 136.868 128.614 137.038 129.009 137.209C129.403 137.369 129.739 137.614 130.017 137.945C130.305 138.276 130.454 138.708 130.465 139.241C130.465 139.721 130.331 140.153 130.065 140.537C129.798 140.921 129.419 141.225 128.929 141.449C128.449 141.662 127.894 141.769 127.265 141.769ZM135.232 141.769C134.56 141.769 133.957 141.657 133.424 141.433C132.891 141.198 132.469 140.878 132.16 140.473C131.851 140.057 131.68 139.582 131.648 139.049H133.152C133.195 139.486 133.397 139.844 133.76 140.121C134.133 140.398 134.619 140.537 135.216 140.537C135.771 140.537 136.208 140.414 136.528 140.169C136.848 139.924 137.008 139.614 137.008 139.241C137.008 138.857 136.837 138.574 136.496 138.393C136.155 138.201 135.627 138.014 134.912 137.833C134.261 137.662 133.728 137.492 133.312 137.321C132.907 137.14 132.555 136.878 132.256 136.537C131.968 136.185 131.824 135.726 131.824 135.161C131.824 134.713 131.957 134.302 132.224 133.929C132.491 133.556 132.869 133.262 133.36 133.049C133.851 132.825 134.411 132.713 135.04 132.713C136.011 132.713 136.795 132.958 137.392 133.449C137.989 133.94 138.309 134.612 138.352 135.465H136.896C136.864 135.006 136.677 134.638 136.336 134.361C136.005 134.084 135.557 133.945 134.992 133.945C134.469 133.945 134.053 134.057 133.744 134.281C133.435 134.505 133.28 134.798 133.28 135.161C133.28 135.449 133.371 135.689 133.552 135.881C133.744 136.062 133.979 136.212 134.256 136.329C134.544 136.436 134.939 136.558 135.44 136.697C136.069 136.868 136.581 137.038 136.976 137.209C137.371 137.369 137.707 137.614 137.984 137.945C138.272 138.276 138.421 138.708 138.432 139.241C138.432 139.721 138.299 140.153 138.032 140.537C137.765 140.921 137.387 141.225 136.896 141.449C136.416 141.662 135.861 141.769 135.232 141.769ZM141.599 139.609L139.807 143.913H138.831L139.999 139.609H141.599ZM150.572 141.769C149.751 141.769 149.004 141.582 148.332 141.209C147.671 140.836 147.148 140.308 146.764 139.625C146.391 138.932 146.204 138.132 146.204 137.225C146.204 136.329 146.396 135.54 146.78 134.857C147.175 134.164 147.708 133.636 148.38 133.273C149.052 132.9 149.804 132.713 150.636 132.713C151.468 132.713 152.22 132.9 152.892 133.273C153.564 133.636 154.092 134.158 154.476 134.841C154.871 135.524 155.068 136.318 155.068 137.225C155.068 138.132 154.866 138.932 154.46 139.625C154.066 140.308 153.527 140.836 152.844 141.209C152.162 141.582 151.404 141.769 150.572 141.769ZM150.572 140.489C151.095 140.489 151.586 140.366 152.044 140.121C152.503 139.876 152.871 139.508 153.148 139.017C153.436 138.526 153.58 137.929 153.58 137.225C153.58 136.521 153.442 135.924 153.164 135.433C152.887 134.942 152.524 134.58 152.076 134.345C151.628 134.1 151.143 133.977 150.62 133.977C150.087 133.977 149.596 134.1 149.148 134.345C148.711 134.58 148.359 134.942 148.092 135.433C147.826 135.924 147.692 136.521 147.692 137.225C147.692 137.94 147.82 138.542 148.076 139.033C148.343 139.524 148.695 139.892 149.132 140.137C149.57 140.372 150.05 140.489 150.572 140.489ZM158.047 134.281C158.303 133.78 158.665 133.39 159.135 133.113C159.615 132.836 160.196 132.697 160.879 132.697V134.201H160.495C158.863 134.201 158.047 135.086 158.047 136.857V141.625H156.591V132.857H158.047V134.281ZM165.497 137.209C165.497 136.313 165.678 135.529 166.041 134.857C166.403 134.174 166.899 133.646 167.529 133.273C168.169 132.9 168.883 132.713 169.673 132.713C170.355 132.713 170.99 132.873 171.577 133.193C172.163 133.502 172.611 133.913 172.921 134.425V129.785H174.393V141.625H172.921V139.977C172.633 140.5 172.206 140.932 171.641 141.273C171.075 141.604 170.414 141.769 169.657 141.769C168.878 141.769 168.169 141.577 167.529 141.193C166.899 140.809 166.403 140.27 166.041 139.577C165.678 138.884 165.497 138.094 165.497 137.209ZM172.921 137.225C172.921 136.564 172.787 135.988 172.521 135.497C172.254 135.006 171.891 134.633 171.433 134.377C170.985 134.11 170.489 133.977 169.945 133.977C169.401 133.977 168.905 134.105 168.457 134.361C168.009 134.617 167.651 134.99 167.385 135.481C167.118 135.972 166.985 136.548 166.985 137.209C166.985 137.881 167.118 138.468 167.385 138.969C167.651 139.46 168.009 139.838 168.457 140.105C168.905 140.361 169.401 140.489 169.945 140.489C170.489 140.489 170.985 140.361 171.433 140.105C171.891 139.838 172.254 139.46 172.521 138.969C172.787 138.468 172.921 137.886 172.921 137.225ZM177.917 134.281C178.173 133.78 178.536 133.39 179.005 133.113C179.485 132.836 180.066 132.697 180.749 132.697V134.201H180.365C178.733 134.201 177.917 135.086 177.917 136.857V141.625H176.461V132.857H177.917V134.281ZM185.862 141.769C185.04 141.769 184.294 141.582 183.622 141.209C182.96 140.836 182.438 140.308 182.054 139.625C181.68 138.932 181.494 138.132 181.494 137.225C181.494 136.329 181.686 135.54 182.07 134.857C182.464 134.164 182.998 133.636 183.67 133.273C184.342 132.9 185.094 132.713 185.926 132.713C186.758 132.713 187.51 132.9 188.182 133.273C188.854 133.636 189.382 134.158 189.766 134.841C190.16 135.524 190.358 136.318 190.358 137.225C190.358 138.132 190.155 138.932 189.75 139.625C189.355 140.308 188.816 140.836 188.134 141.209C187.451 141.582 186.694 141.769 185.862 141.769ZM185.862 140.489C186.384 140.489 186.875 140.366 187.334 140.121C187.792 139.876 188.16 139.508 188.438 139.017C188.726 138.526 188.87 137.929 188.87 137.225C188.87 136.521 188.731 135.924 188.454 135.433C188.176 134.942 187.814 134.58 187.366 134.345C186.918 134.1 186.432 133.977 185.91 133.977C185.376 133.977 184.886 134.1 184.438 134.345C184 134.58 183.648 134.942 183.382 135.433C183.115 135.924 182.982 136.521 182.982 137.225C182.982 137.94 183.11 138.542 183.366 139.033C183.632 139.524 183.984 139.892 184.422 140.137C184.859 140.372 185.339 140.489 185.862 140.489ZM193.336 134.473C193.624 133.972 194.05 133.556 194.616 133.225C195.192 132.884 195.858 132.713 196.616 132.713C197.394 132.713 198.098 132.9 198.728 133.273C199.368 133.646 199.869 134.174 200.232 134.857C200.594 135.529 200.776 136.313 200.776 137.209C200.776 138.094 200.594 138.884 200.232 139.577C199.869 140.27 199.368 140.809 198.728 141.193C198.098 141.577 197.394 141.769 196.616 141.769C195.869 141.769 195.208 141.604 194.632 141.273C194.066 140.932 193.634 140.51 193.336 140.009V145.785H191.88V132.857H193.336V134.473ZM199.288 137.209C199.288 136.548 199.154 135.972 198.888 135.481C198.621 134.99 198.258 134.617 197.8 134.361C197.352 134.105 196.856 133.977 196.312 133.977C195.778 133.977 195.282 134.11 194.824 134.377C194.376 134.633 194.013 135.012 193.736 135.513C193.469 136.004 193.336 136.574 193.336 137.225C193.336 137.886 193.469 138.468 193.736 138.969C194.013 139.46 194.376 139.838 194.824 140.105C195.282 140.361 195.778 140.489 196.312 140.489C196.856 140.489 197.352 140.361 197.8 140.105C198.258 139.838 198.621 139.46 198.888 138.969C199.154 138.468 199.288 137.881 199.288 137.209ZM208.38 135.145V136.377H201.996V135.145H208.38ZM214.545 141.769C213.723 141.769 212.977 141.582 212.305 141.209C211.643 140.836 211.121 140.308 210.737 139.625C210.363 138.932 210.177 138.132 210.177 137.225C210.177 136.329 210.369 135.54 210.753 134.857C211.147 134.164 211.681 133.636 212.353 133.273C213.025 132.9 213.777 132.713 214.609 132.713C215.441 132.713 216.193 132.9 216.865 133.273C217.537 133.636 218.065 134.158 218.449 134.841C218.843 135.524 219.041 136.318 219.041 137.225C219.041 138.132 218.838 138.932 218.433 139.625C218.038 140.308 217.499 140.836 216.817 141.209C216.134 141.582 215.377 141.769 214.545 141.769ZM214.545 140.489C215.067 140.489 215.558 140.366 216.017 140.121C216.475 139.876 216.843 139.508 217.121 139.017C217.409 138.526 217.553 137.929 217.553 137.225C217.553 136.521 217.414 135.924 217.137 135.433C216.859 134.942 216.497 134.58 216.049 134.345C215.601 134.1 215.115 133.977 214.593 133.977C214.059 133.977 213.569 134.1 213.121 134.345C212.683 134.58 212.331 134.942 212.065 135.433C211.798 135.924 211.665 136.521 211.665 137.225C211.665 137.94 211.793 138.542 212.049 139.033C212.315 139.524 212.667 139.892 213.105 140.137C213.542 140.372 214.022 140.489 214.545 140.489ZM224.131 134.057H222.291V141.625H220.835V134.057H219.699V132.857H220.835V132.233C220.835 131.252 221.085 130.537 221.587 130.089C222.099 129.63 222.915 129.401 224.035 129.401V130.617C223.395 130.617 222.941 130.745 222.675 131.001C222.419 131.246 222.291 131.657 222.291 132.233V132.857H224.131V134.057ZM229.004 134.057H227.164V141.625H225.708V134.057H224.572V132.857H225.708V132.233C225.708 131.252 225.959 130.537 226.46 130.089C226.972 129.63 227.788 129.401 228.908 129.401V130.617C228.268 130.617 227.815 130.745 227.548 131.001C227.292 131.246 227.164 131.657 227.164 132.233V132.857H229.004V134.057ZM230.774 141.721C230.496 141.721 230.262 141.625 230.07 141.433C229.878 141.241 229.782 141.006 229.782 140.729C229.782 140.452 229.878 140.217 230.07 140.025C230.262 139.833 230.496 139.737 230.774 139.737C231.04 139.737 231.264 139.833 231.446 140.025C231.638 140.217 231.734 140.452 231.734 140.729C231.734 141.006 231.638 141.241 231.446 141.433C231.264 141.625 231.04 141.721 230.774 141.721Z" fill="#1A202A"/>
<rect x="20.3866" y="208.843" width="313.106" height="206.418" rx="4.25206" fill="white"/>
<rect x="20.3866" y="208.843" width="313.106" height="206.418" rx="4.25206" stroke="#DBDBDB" stroke-width="0.773102"/>
<rect x="38.4668" y="227.011" width="249.244" height="10.986" fill="#D0E5FF"/>
<rect x="38.4668" y="247.61" width="102.993" height="10.986" fill="#D0E5FF"/>
<g clip-path="url(#clip1_15_9615)">
<path d="M275.043 307.2H55.6232C47.6947 307.2 41.2422 300.749 41.2422 292.819V291.858C41.2422 283.93 47.6927 277.477 55.6232 277.477H275.043C282.973 277.477 289.424 283.928 289.424 291.858V292.819C289.424 300.747 282.973 307.2 275.043 307.2ZM55.6232 278.358C48.1789 278.358 42.1236 284.414 42.1236 291.858V292.819C42.1236 300.263 48.1789 306.319 55.6232 306.319H275.043C282.487 306.319 288.542 300.263 288.542 292.819V291.858C288.542 284.414 282.487 278.358 275.043 278.358H55.6232Z" fill="#D0E5FF"/>
<path d="M81.6685 286.966H55.136C52.6914 286.966 50.7097 288.948 50.7097 291.392V293.285C50.7097 295.729 52.6914 297.711 55.136 297.711H81.6685C84.113 297.711 86.0947 295.729 86.0947 293.285V291.392C86.0947 288.948 84.113 286.966 81.6685 286.966Z" fill="#D0E5FF"/>
<path d="M124.66 286.966H101.465C98.9888 286.966 96.9811 288.974 96.9811 291.45V293.227C96.9811 295.703 98.9888 297.711 101.465 297.711H124.66C127.137 297.711 129.145 295.703 129.145 293.227V291.45C129.145 288.974 127.137 286.966 124.66 286.966Z" fill="#D0E5FF"/>
<path d="M174.087 286.966H142.838C140.226 286.966 138.109 289.083 138.109 291.694V292.982C138.109 295.594 140.226 297.711 142.838 297.711H174.087C176.699 297.711 178.816 295.594 178.816 292.982V291.694C178.816 289.083 176.699 286.966 174.087 286.966Z" fill="#D0E5FF"/>
<path d="M242.669 286.906H196.233C193.622 286.906 191.505 289.023 191.505 291.634V292.922C191.505 295.534 193.622 297.651 196.233 297.651H242.669C245.281 297.651 247.398 295.534 247.398 292.922V291.634C247.398 289.023 245.281 286.906 242.669 286.906Z" fill="#D0E5FF"/>
<path d="M153.666 354.346H140.562V379.44H153.666V354.346Z" fill="#FFBE81"/>
<path d="M180.698 339.419H167.593V379.439H180.698V339.419Z" fill="#D0E5FF"/>
<path d="M207.726 330.634H194.621V379.443H207.726V330.634Z" fill="#FFBE81"/>
<path d="M234.754 351.87H221.65V379.441H234.754V351.87Z" fill="#D0E5FF"/>
<path d="M261.786 335.946H248.681V379.444H261.786V335.946Z" fill="#FFBE81"/>
<path d="M288.817 319.421H275.712V379.442H288.817V319.421Z" fill="#D0E5FF"/>
<path d="M111.744 317.896H37.7814V322.619H111.744V317.896Z" fill="#D0E5FF"/>
<path d="M111.52 331.156H37.5579V379.445H111.52V331.156Z" fill="#D0E5FF"/>
<path d="M106.079 351.759C104.563 352.033 102.563 352.47 101.171 353.162C99.4377 354.023 98.4616 355.994 96.8545 356.871C95.2132 357.766 93.5261 357.298 92.0288 356.289C91.439 355.892 90.8767 355.415 90.36 354.9C88.3118 352.862 87.6717 351.71 84.4302 351.445C83.7695 351.392 83.1454 351.417 82.5419 351.5C80.4388 351.786 78.6786 352.857 77.2087 354.521C75.4942 356.465 75.4142 359.315 72.3875 359.79C70.0581 360.157 68.1356 358.879 65.9982 358.29C65.1455 358.055 64.2585 357.926 63.2984 358.059C61.0444 358.373 59.618 359.74 58.0475 360.776C56.9525 361.498 55.7889 362.061 54.223 361.99C50.7277 361.835 46.222 359.802 42.1964 359.67V375.383H107.137V351.602C106.783 351.65 106.426 351.692 106.076 351.754L106.079 351.759Z" fill="white"/>
</g>
<path d="M230.223 311.625L231.746 318.713L238.834 320.235L231.746 321.757L230.223 328.845L228.701 321.757L221.613 320.235L228.701 318.713L230.223 311.625Z" fill="#212AFF"/>
<path d="M230.223 311.625L231.746 318.713L238.834 320.235L231.746 321.757L230.223 328.845L228.701 321.757L221.613 320.235L228.701 318.713L230.223 311.625Z" fill="#212AFF"/>
<path d="M230.223 311.625L231.746 318.713L238.834 320.235L231.746 321.757L230.223 328.845L228.701 321.757L221.613 320.235L228.701 318.713L230.223 311.625Z" fill="#FFCA20"/>
<path d="M41.6134 171.625L43.3812 179.857L51.6134 181.625L43.3812 183.393L41.6134 191.625L39.8456 183.393L31.6134 181.625L39.8456 179.857L41.6134 171.625Z" fill="#212AFF"/>
<path d="M41.6134 171.625L43.3812 179.857L51.6134 181.625L43.3812 183.393L41.6134 191.625L39.8456 183.393L31.6134 181.625L39.8456 179.857L41.6134 171.625Z" fill="#212AFF"/>
<path d="M41.6134 171.625L43.3812 179.857L51.6134 181.625L43.3812 183.393L41.6134 191.625L39.8456 183.393L31.6134 181.625L39.8456 179.857L41.6134 171.625Z" fill="#FFCA20"/>
<path d="M280.003 193.625L281.31 199.709L287.393 201.015L281.31 202.321L280.003 208.405L278.697 202.321L272.613 201.015L278.697 199.709L280.003 193.625Z" fill="#212AFF"/>
<path d="M280.003 193.625L281.31 199.709L287.393 201.015L281.31 202.321L280.003 208.405L278.697 202.321L272.613 201.015L278.697 199.709L280.003 193.625Z" fill="#212AFF"/>
<path d="M280.003 193.625L281.31 199.709L287.393 201.015L281.31 202.321L280.003 208.405L278.697 202.321L272.613 201.015L278.697 199.709L280.003 193.625Z" fill="#FFCA20"/>
</g>
<rect x="0.5" y="1.10205" width="302" height="437" rx="11.5" stroke="#E3EFFF"/>
<defs>
<clipPath id="clip0_15_9615">
<rect y="0.602051" width="303" height="438" rx="12" fill="white"/>
</clipPath>
<clipPath id="clip1_15_9615">
<rect width="251.643" height="124.279" fill="white" transform="translate(37.7814 255.163)"/>
</clipPath>
</defs>
</svg>
