<svg width="78" height="79" viewBox="0 0 78 79" fill="none" xmlns="http://www.w3.org/2000/svg">
<rect y="0.182617" width="78" height="78" rx="12" fill="#FFF2C8"/>
<rect x="24.75" y="27.5967" width="26.8333" height="26.8333" rx="3.83333" fill="#2E6CB6"/>
<path d="M32.418 29.5133V21.8467" stroke="#2E6CB6" stroke-width="3.83333"/>
<path d="M32.418 60.1852V52.5186" stroke="#2E6CB6" stroke-width="3.83333"/>
<path d="M43.918 60.1852V52.5186" stroke="#2E6CB6" stroke-width="3.83333"/>
<path d="M57.3346 46.7686L49.668 46.7686" stroke="#2E6CB6" stroke-width="3.83333"/>
<path d="M26.6667 46.7686L19 46.7686" stroke="#2E6CB6" stroke-width="3.83333"/>
<path d="M26.6667 35.2686L19 35.2686" stroke="#2E6CB6" stroke-width="3.83333"/>
<path d="M45.832 21.8467V21.8467C49.4043 21.8467 51.1904 21.8467 52.5993 22.4303C54.4778 23.2084 55.9703 24.7009 56.7484 26.5794C57.332 27.9884 57.332 29.7745 57.332 33.3467V33.3467" stroke="#2E6CB6" stroke-width="3.83333"/>
<path d="M55.418 16.0967V16.0967C55.418 16.0967 55.418 16.0967 55.418 16.0967C59.6522 16.0967 63.0846 19.5292 63.0846 23.7633C63.0846 23.7633 63.0846 23.7633 63.0846 23.7633V23.7633" stroke="#2E6CB6" stroke-width="3.83333"/>
</svg>
