<svg width="78" height="79" viewBox="0 0 78 79" fill="none" xmlns="http://www.w3.org/2000/svg">
<rect y="0.182617" width="78" height="78" rx="12" fill="#FFF2C8"/>
<path d="M61 41.9824C61 48.205 61.0005 51.3169 59.0674 53.25C57.1343 55.1831 54.0223 55.1826 47.7998 55.1826H30.2002C23.9777 55.1826 20.8657 55.1831 18.9326 53.25C16.9995 51.3169 17 48.205 17 41.9824V36.8818H61V41.9824ZM28 44.8818C27.1716 44.8818 26.5 45.5534 26.5 46.3818C26.5 47.2103 27.1716 47.8818 28 47.8818H28.0225L28.1758 47.874C28.932 47.797 29.5225 47.1583 29.5225 46.3818C29.5225 45.6053 28.932 44.9667 28.1758 44.8896L28.0225 44.8818H28ZM47.7998 22.1826C54.0223 22.1826 57.1343 22.1821 59.0674 24.1152C60.8384 25.8862 60.9846 28.6466 60.9971 33.8818H17.0029C17.0154 28.6466 17.1616 25.8862 18.9326 24.1152C20.8657 22.1821 23.9777 22.1826 30.2002 22.1826H47.7998Z" fill="#2E6CB6"/>
</svg>
