<svg width="78" height="79" viewBox="0 0 78 79" fill="none" xmlns="http://www.w3.org/2000/svg">
<rect y="0.182617" width="78" height="78" rx="12" fill="#FFF2C8"/>
<path d="M21.3179 23.3551C21.7757 21.8269 22.0046 21.0628 22.5958 20.6227C23.1871 20.1826 23.9847 20.1826 25.58 20.1826H51.6231C53.2184 20.1826 54.0161 20.1826 54.6073 20.6227C55.1986 21.0628 55.4274 21.8269 55.8852 23.3551L58.3956 31.7356C58.7093 32.7828 58.8661 33.3064 58.8291 33.7305C58.7559 34.5686 58.2161 35.2938 57.4343 35.6044C57.0386 35.7616 56.492 35.7616 55.3989 35.7616H54.8322C53.9657 35.7616 53.5324 35.7616 53.1538 35.6957C51.6162 35.428 50.3313 34.3743 49.7678 32.9189C49.629 32.5605 49.5441 32.1357 49.3744 31.286C49.3329 31.0779 49.3121 30.9739 49.2922 30.9407C49.2057 30.7971 48.9974 30.7971 48.911 30.9407C48.891 30.9739 48.8702 31.0779 48.8287 31.286L48.7345 31.7573C48.654 32.1606 48.6137 32.3623 48.5636 32.5375C48.0538 34.3172 46.4952 35.5953 44.6501 35.7467C44.4685 35.7616 44.2629 35.7616 43.8516 35.7616C43.4402 35.7616 43.2346 35.7616 43.053 35.7467C41.2079 35.5953 39.6493 34.3172 39.1396 32.5375C39.0894 32.3623 39.0491 32.1606 38.9686 31.7573L38.8745 31.286C38.8329 31.0779 38.8121 30.9739 38.7922 30.9407C38.7057 30.7971 38.4974 30.7971 38.411 30.9407C38.391 30.9739 38.3702 31.0779 38.3287 31.286L38.2345 31.7573C38.154 32.1606 38.1137 32.3623 38.0636 32.5375C37.5538 34.3172 35.9952 35.5953 34.1501 35.7467C33.9685 35.7616 33.7629 35.7616 33.3516 35.7616C32.9402 35.7616 32.7346 35.7616 32.553 35.7467C30.7079 35.5953 29.1493 34.3172 28.6396 32.5375C28.5894 32.3623 28.5491 32.1606 28.4686 31.7573L28.3745 31.286C28.3329 31.0779 28.3121 30.9739 28.2922 30.9407C28.2057 30.7971 27.9974 30.7971 27.911 30.9407C27.891 30.9739 27.8702 31.0779 27.8287 31.286C27.659 32.1357 27.5741 32.5605 27.4354 32.9189C26.8718 34.3743 25.5869 35.428 24.0493 35.6957C23.6707 35.7616 23.2374 35.7616 22.3709 35.7616H21.8042C20.7111 35.7616 20.1645 35.7616 19.7689 35.6044C18.987 35.2938 18.4472 34.5686 18.374 33.7305C18.337 33.3064 18.4938 32.7828 18.8075 31.7356L21.3179 23.3551Z" fill="#2E6CB6"/>
<path d="M49.1006 37.4287C50.0984 38.2144 51.289 38.7583 52.582 38.9834C53.1312 39.0789 53.7089 39.0961 54.2734 39.0986H54.8828C54.9348 40.0938 54.9365 41.2816 54.9365 42.7139V52.7344C54.9365 54.8316 54.9366 55.8806 54.2852 56.5322C53.6336 57.1838 52.5846 57.1836 50.4873 57.1836H43.2666V49.6729C43.2666 48.4442 42.2706 47.4482 41.042 47.4482H36.1582L35.9307 47.46C34.8089 47.5739 33.9336 48.5211 33.9336 49.6729V57.1836H26.7188C24.6215 57.1836 23.5725 57.1838 22.9209 56.5322C22.2695 55.8806 22.2695 54.8316 22.2695 52.7344V42.7139C22.2695 41.2816 22.2713 40.0938 22.3232 39.0986H22.9297C23.4942 39.0961 24.072 39.0789 24.6211 38.9834C25.9138 38.7584 27.1039 38.2142 28.1016 37.4287C29.2773 38.3544 30.7197 38.9442 32.2803 39.0723C32.6315 39.1011 33.0024 39.0986 33.3516 39.0986C33.7007 39.0986 34.0717 39.1011 34.4229 39.0723C35.9834 38.9442 37.4258 38.3544 38.6016 37.4287C39.7773 38.3544 41.2197 38.9442 42.7803 39.0723C43.1315 39.1011 43.5024 39.0986 43.8516 39.0986C44.2007 39.0986 44.5717 39.1011 44.9229 39.0723C46.4832 38.9443 47.925 38.3541 49.1006 37.4287ZM38.8174 57.1836H38.3828V51.8975H38.8174V57.1836Z" fill="#2E6CB6"/>
</svg>
