<svg width="78" height="79" viewBox="0 0 78 79" fill="none" xmlns="http://www.w3.org/2000/svg">
<rect y="0.182617" width="78" height="78" rx="12" fill="#FFF2C8"/>
<path d="M64.1872 43.652L63.2897 39.3332C62.9729 37.7066 61.6529 36.5287 60.1218 36.4166L52.5717 35.6874L46.7639 29.6299C45.18 27.9472 43.0681 27.0498 40.8506 27.0498H37.5771C31.9805 27.0498 26.5423 29.069 22.1073 32.7147L21.6849 32.9952C20.3122 34.1169 18.8866 35.1826 17.4083 36.1361L14.8212 37.8188C14.346 38.0992 14.082 38.6601 14.082 39.1649V44.6055C14.082 45.5029 14.7684 46.1759 15.5604 46.1759H18.8866C18.8866 42.9228 21.3681 40.2867 24.4304 40.2867C27.4927 40.2867 29.9742 42.9228 29.9742 46.1759H48.1895C48.2423 42.9228 50.7766 40.2867 53.8389 40.2867C56.9011 40.2867 59.4354 42.9228 59.4354 46.1759H62.2865C63.5537 46.1759 64.4512 44.942 64.1872 43.652ZM33.1421 35.2948H24.7472C27.2287 33.3317 30.1326 31.9856 33.1421 31.3125V35.2948ZM36.7323 35.2948V30.8638C36.9963 30.8638 37.2603 30.8077 37.5771 30.8077H40.9034C42.1705 30.8077 43.3849 31.3125 44.3352 32.266L47.1863 35.2948H36.7323Z" fill="#2E6CB6"/>
<path d="M24.485 50.2164C26.5845 50.2164 28.2865 48.4083 28.2865 46.178C28.2865 43.9477 26.5845 42.1396 24.485 42.1396C22.3856 42.1396 20.6836 43.9477 20.6836 46.178C20.6836 48.4083 22.3856 50.2164 24.485 50.2164Z" fill="#2E6CB6"/>
<path d="M53.8405 50.2164C55.94 50.2164 57.642 48.4083 57.642 46.178C57.642 43.9477 55.94 42.1396 53.8405 42.1396C51.741 42.1396 50.0391 43.9477 50.0391 46.178C50.0391 48.4083 51.741 50.2164 53.8405 50.2164Z" fill="#2E6CB6"/>
</svg>
