<svg width="78" height="79" viewBox="0 0 78 79" fill="none" xmlns="http://www.w3.org/2000/svg">
<rect y="0.182617" width="78" height="78" rx="12" fill="#FFF2C8"/>
<path d="M46.8398 55.1123H57.1634" stroke="#2E6CB6" stroke-width="3.25" stroke-linecap="round"/>
<path d="M52 55.114L52 48.4365" stroke="#2E6CB6" stroke-width="3.25"/>
<path d="M39.957 29.0366C39.957 27.8783 39.957 27.2991 40.2388 26.8853C40.3535 26.7167 40.499 26.5713 40.6675 26.4566C41.0814 26.1748 41.6605 26.1748 42.8188 26.1748H61.1835C62.3418 26.1748 62.9209 26.1748 63.3348 26.4566C63.5033 26.5713 63.6488 26.7167 63.7635 26.8853C64.0453 27.2991 64.0453 27.8783 64.0453 29.0366V34.163C64.0453 36.2947 64.0453 37.3606 63.8793 38.2487C63.1395 42.2058 60.0439 45.3014 56.0868 46.0411C55.1987 46.2071 54.1329 46.2071 52.0011 46.2071C49.8694 46.2071 48.8036 46.2071 47.9155 46.0411C43.9584 45.3014 40.8628 42.2058 40.123 38.2487C39.957 37.3606 39.957 36.2947 39.957 34.163V29.0366Z" fill="#2E6CB6"/>
<path d="M50.4132 34.7278C50.2197 35.6041 50.7732 36.4714 51.6495 36.665C52.5259 36.8585 53.3932 36.305 53.5868 35.4287L50.4132 34.7278ZM55.113 20.9836L53.5262 20.6332H53.5262L55.113 20.9836ZM56.7929 18.7981L56.0461 17.3549L56.7929 18.7981ZM55.5754 19.6007L54.2871 18.6104L54.2871 18.6104L55.5754 19.6007ZM52 35.0782L53.5868 35.4287L56.6997 21.3341L55.113 20.9836L53.5262 20.6332L50.4132 34.7278L52 35.0782ZM56.7929 18.7981L57.5397 20.2413L64.7909 16.4891L64.0441 15.0459L63.2973 13.6027L56.0461 17.3549L56.7929 18.7981ZM55.113 20.9836L56.6997 21.3341C56.7861 20.9428 56.8309 20.7462 56.8739 20.6078C56.908 20.4981 56.9106 20.5302 56.8638 20.591L55.5754 19.6007L54.2871 18.6104C53.7947 19.251 53.6549 20.0505 53.5262 20.6332L55.113 20.9836ZM56.7929 18.7981L56.0461 17.3549C55.5161 17.6291 54.7794 17.9699 54.2871 18.6104L55.5754 19.6007L56.8638 20.591C56.8171 20.6519 56.7853 20.6576 56.8826 20.5965C57.0053 20.5193 57.1838 20.4255 57.5397 20.2413L56.7929 18.7981Z" fill="#2E6CB6"/>
<path d="M29.9142 44.7389V44.7389C30.8889 44.7389 31.8453 45.0038 32.6811 45.5052L33.4433 45.9625C36.6615 47.8934 40.7608 47.5106 43.5659 45.0173L45.5549 43.2493" stroke="#FFF2C8" stroke-width="6.5" stroke-linecap="round"/>
<path d="M29.9142 44.7389V44.7389C28.9395 44.7389 27.9831 45.0038 27.1473 45.5052L26.3852 45.9625C23.167 47.8934 19.0676 47.5106 16.2626 45.0173L14.2736 43.2493" stroke="#FFF2C8" stroke-width="6.5" stroke-linecap="round"/>
<path d="M16.5078 49.9521H43.3193V50.6787C43.3193 54.3908 40.3097 57.4004 36.5977 57.4004H23.2275C19.5156 57.4002 16.5068 54.3907 16.5068 50.6787V43.9941C16.5068 43.9651 16.5076 43.9362 16.5078 43.9072V49.9521ZM29.9131 30.5879C36.2929 30.588 41.6314 35.0448 42.9863 41.0146H16.8398C18.1947 35.0447 23.5331 30.5879 29.9131 30.5879Z" fill="#2E6CB6"/>
<path d="M16.5078 49.9521H13.2578C13.2578 51.7471 14.7129 53.2021 16.5078 53.2021V49.9521ZM43.3193 49.9521H46.5693C46.5693 48.1572 45.1143 46.7021 43.3193 46.7021V49.9521ZM23.2275 57.4004L23.2274 60.6504H23.2275V57.4004ZM16.5078 43.9072H19.7578C19.7578 42.1163 18.309 40.6629 16.5181 40.6572C14.7272 40.6516 13.2692 42.0957 13.2579 43.8866L16.5078 43.9072ZM29.9131 30.5879L29.9132 27.3379H29.9131V30.5879ZM42.9863 41.0146V44.2646C43.9747 44.2646 44.9093 43.8149 45.526 43.0425C46.1427 42.2702 46.3745 41.2592 46.1557 40.2953L42.9863 41.0146ZM16.8398 41.0146L13.6704 40.2953C13.4517 41.2592 13.6834 42.2702 14.3001 43.0426C14.9168 43.8149 15.8515 44.2646 16.8398 44.2646V41.0146ZM16.5078 49.9521V53.2021H43.3193V49.9521V46.7021H16.5078V49.9521ZM43.3193 49.9521H40.0693V50.6787H43.3193H46.5693V49.9521H43.3193ZM43.3193 50.6787H40.0693C40.0693 52.5959 38.5148 54.1504 36.5977 54.1504V57.4004V60.6504C42.1046 60.6504 46.5693 56.1857 46.5693 50.6787H43.3193ZM36.5977 57.4004V54.1504H23.2275V57.4004V60.6504H36.5977V57.4004ZM23.2275 57.4004L23.2277 54.1504C21.311 54.1503 19.7568 52.5963 19.7568 50.6787H16.5068H13.2568C13.2568 56.1851 17.7201 60.6502 23.2274 60.6504L23.2275 57.4004ZM16.5068 50.6787H19.7568V43.9941H16.5068H13.2568V50.6787H16.5068ZM16.5068 43.9941H19.7568C19.7568 44.0067 19.7567 44.0139 19.7569 44.0003C19.7569 43.9965 19.7571 43.9842 19.7573 43.9739C19.7574 43.9622 19.7576 43.9462 19.7577 43.9279L16.5078 43.9072L13.2579 43.8866C13.2579 43.8828 13.2579 43.8812 13.2579 43.884C13.2578 43.8881 13.2578 43.8904 13.2576 43.9011C13.2574 43.9164 13.2568 43.9526 13.2568 43.9941H16.5068ZM16.5078 43.9072H13.2578V49.9521H16.5078H19.7578V43.9072H16.5078ZM29.9131 30.5879L29.913 33.8379C34.7419 33.838 38.7905 37.2116 39.8169 41.734L42.9863 41.0146L46.1557 40.2953C44.4723 32.8779 37.8439 27.3381 29.9132 27.3379L29.9131 30.5879ZM42.9863 41.0146V37.7646H16.8398V41.0146V44.2646H42.9863V41.0146ZM16.8398 41.0146L20.0092 41.7339C21.0356 37.2115 25.0841 33.8379 29.9131 33.8379V30.5879V27.3379C21.9821 27.3379 15.3538 32.8779 13.6704 40.2953L16.8398 41.0146Z" fill="#FFF2C8"/>
<path d="M29.9142 44.7389V44.7389C30.8889 44.7389 31.8453 45.0038 32.6811 45.5052L33.4433 45.9625C36.6615 47.8934 40.7608 47.5106 43.5659 45.0173L45.5549 43.2493" stroke="#2E6CB6" stroke-width="2.97917" stroke-linecap="round"/>
<path d="M29.9142 44.7389V44.7389C28.9395 44.7389 27.9831 45.0038 27.1473 45.5052L26.3852 45.9625C23.167 47.8934 19.0676 47.5106 16.2626 45.0173L14.2736 43.2493" stroke="#2E6CB6" stroke-width="2.97917" stroke-linecap="round"/>
<path d="M16.5078 49.9521L43.3193 49.6797V50.6787C43.3193 54.3908 40.3097 57.4004 36.5977 57.4004H23.2275C19.5156 57.4002 16.5068 54.3907 16.5068 50.6787V43.9941C16.5068 43.9651 16.5076 43.9362 16.5078 43.9072V49.9521ZM29.9131 30.5879C36.2929 30.588 41.6314 35.0448 42.9863 41.0146H16.8398C18.1947 35.0447 23.5331 30.5879 29.9131 30.5879Z" fill="#2E6CB6"/>
<path d="M16.5078 49.9521H15.763C15.763 50.151 15.8425 50.3416 15.9838 50.4815C16.1252 50.6214 16.3165 50.6989 16.5154 50.6969L16.5078 49.9521ZM43.3193 49.6797H44.0641C44.0641 49.4808 43.9846 49.2903 43.8433 49.1504C43.702 49.0105 43.5106 48.9329 43.3118 48.9349L43.3193 49.6797ZM23.2275 57.4004L23.2275 58.1452H23.2275V57.4004ZM16.5078 43.9072H17.2526C17.2526 43.4968 16.9206 43.1637 16.5102 43.1624C16.0998 43.1611 15.7656 43.4921 15.763 43.9025L16.5078 43.9072ZM29.9131 30.5879L29.9131 29.8431H29.9131V30.5879ZM42.9863 41.0146V41.7594C43.2128 41.7594 43.427 41.6564 43.5683 41.4794C43.7097 41.3024 43.7628 41.0707 43.7126 40.8498L42.9863 41.0146ZM16.8398 41.0146L16.1135 40.8498C16.0634 41.0707 16.1165 41.3024 16.2578 41.4794C16.3992 41.6564 16.6133 41.7594 16.8398 41.7594V41.0146ZM16.5078 49.9521L16.5154 50.6969L43.3269 50.4244L43.3193 49.6797L43.3118 48.9349L16.5002 49.2074L16.5078 49.9521ZM43.3193 49.6797H42.5745V50.6787H43.3193H44.0641V49.6797H43.3193ZM43.3193 50.6787H42.5745C42.5745 53.9794 39.8984 56.6556 36.5977 56.6556V57.4004V58.1452C40.7211 58.1452 44.0641 54.8021 44.0641 50.6787H43.3193ZM36.5977 57.4004V56.6556H23.2275V57.4004V58.1452H36.5977V57.4004ZM23.2275 57.4004L23.2276 56.6556C19.927 56.6555 17.2516 53.9795 17.2516 50.6787H16.5068H15.762C15.762 54.8019 19.1041 58.145 23.2275 58.1452L23.2275 57.4004ZM16.5068 50.6787H17.2516V43.9941H16.5068H15.762V50.6787H16.5068ZM16.5068 43.9941H17.2516C17.2516 43.9559 17.2522 43.9742 17.2526 43.912L16.5078 43.9072L15.763 43.9025C15.763 43.9128 15.7628 43.923 15.7626 43.9393C15.7623 43.954 15.762 43.9734 15.762 43.9941H16.5068ZM16.5078 43.9072H15.763V49.9521H16.5078H17.2526V43.9072H16.5078ZM29.9131 30.5879L29.9131 31.3327C35.9375 31.3328 40.9804 35.5413 42.26 41.1795L42.9863 41.0146L43.7126 40.8498C42.2824 34.5482 36.6484 29.8433 29.9131 29.8431L29.9131 30.5879ZM42.9863 41.0146V40.2699H16.8398V41.0146V41.7594H42.9863V41.0146ZM16.8398 41.0146L17.5662 41.1795C18.8458 35.5412 23.8886 31.3327 29.9131 31.3327V30.5879V29.8431C23.1777 29.8431 17.5437 34.5481 16.1135 40.8498L16.8398 41.0146Z" fill="#2E6CB6"/>
</svg>
